<svg width="32px" height="32px" version="1.1" xmlns="http://www.w3.org/2000/svg" xmlns:xlink="http://www.w3.org/1999/xlink" viewBox="0 0 32 32"><title>comm_icon_false_line</title><path d="M6.66666678,5.22752111 L6.76087411,5.31070972 L16.0437673,14.5938165 L25.3282102,5.31070972 C25.7187345,4.92018542 26.3518995,4.92018542 26.7424238,5.31070972 C27.1029078,5.67119368 27.1306373,6.23842473 26.8256124,6.63071594 L26.7424238,6.72492328 L17.4587673,16.0078165 L26.7424238,25.2922594 C27.1329481,25.6827837 27.1329481,26.3159487 26.7424238,26.706473 C26.3819398,27.0669569 25.8147088,27.0946865 25.4224176,26.7896616 L25.3282102,26.706473 L16.0437673,17.4228165 L6.76087411,26.706473 C6.37034982,27.0969972 5.73718484,27.0969972 5.34666055,26.706473 C4.98617659,26.345989 4.95844705,25.7787579 5.26347194,25.3864667 L5.34666055,25.2922594 L14.6297673,16.0078165 L5.34666055,6.72492328 C4.95613626,6.33439899 4.95613626,5.70123401 5.34666055,5.31070972 C5.70714451,4.95022575 6.27437557,4.92249622 6.66666678,5.22752111 Z" id="形状结合" stroke="none" stroke-width="1"/></svg>