<svg width="32px" height="32px" version="1.1" xmlns="http://www.w3.org/2000/svg" xmlns:xlink="http://www.w3.org/1999/xlink" viewBox="0 0 32 32"><title>comm_icon_more_line</title><path d="M16,14 C17.1045695,14 18,14.8954305 18,16 C18,17.1045695 17.1045695,18 16,18 C14.8954305,18 14,17.1045695 14,16 C14,14.8954305 14.8954305,14 16,14 Z M26,14 C27.1045695,14 28,14.8954305 28,16 C28,17.1045695 27.1045695,18 26,18 C24.8954305,18 24,17.1045695 24,16 C24,14.8954305 24.8954305,14 26,14 Z M6,14 C7.1045695,14 8,14.8954305 8,16 C8,17.1045695 7.1045695,18 6,18 C4.8954305,18 4,17.1045695 4,16 C4,14.8954305 4.8954305,14 6,14 Z" id="形状结合" stroke="none" stroke-width="1"/></svg>