<svg width="32px" height="32px" version="1.1" xmlns="http://www.w3.org/2000/svg" xmlns:xlink="http://www.w3.org/1999/xlink" viewBox="0 0 32 32"><title>comm_icon_question_circle_line</title><path d="M16,2 C23.7319865,2 30,8.2680135 30,16 C30,23.7319865 23.7319865,30 16,30 C8.2680135,30 2,23.7319865 2,16 C2,8.2680135 8.2680135,2 16,2 Z M16,4 C9.372583,4 4,9.372583 4,16 C4,22.627417 9.372583,28 16,28 C22.627417,28 28,22.627417 28,16 C28,9.372583 22.627417,4 16,4 Z M16,22.5 C16.8284271,22.5 17.5,23.1715729 17.5,24 C17.5,24.8284271 16.8284271,25.5 16,25.5 C15.1715729,25.5 14.5,24.8284271 14.5,24 C14.5,23.1715729 15.1715729,22.5 16,22.5 Z M16,7 C18.7614237,7 21,9.23857625 21,12 C21,13.7982805 20.2048368,15.2430562 18.6835166,16.2364778 L18.4612527,16.3753142 C17.6115917,16.8829848 17.0707398,17.7743233 17.0064534,18.7536765 L17,18.9506331 L17,20.0088628 C17,20.5611476 16.5522847,21.0088628 16,21.0088628 C15.4871642,21.0088628 15.0644928,20.6228226 15.0067277,20.1254839 L15,20.0088628 L15,18.9506343 C15,17.2710178 15.842741,15.7094177 17.2331049,14.785961 L17.4354218,14.658436 C18.5049209,14.0194126 19,13.1707686 19,12 C19,10.3431458 17.6568542,9 16,9 C14.3431458,9 13,10.3431458 13,12 C13,12.5522847 12.5522847,13 12,13 C11.4477153,13 11,12.5522847 11,12 C11,9.23857625 13.2385763,7 16,7 Z" id="形状结合" stroke="none" stroke-width="1"/></svg>