<svg width="32px" height="32px" version="1.1" xmlns="http://www.w3.org/2000/svg" xmlns:xlink="http://www.w3.org/1999/xlink" viewBox="0 0 32 32"><title>comm_icon_false_circle_line</title><path d="M16,2 C23.7319865,2 30,8.2680135 30,16 C30,23.7319865 23.7319865,30 16,30 C8.2680135,30 2,23.7319865 2,16 C2,8.2680135 8.2680135,2 16,2 Z M16,4 C9.372583,4 4,9.372583 4,16 C4,22.627417 9.372583,28 16,28 C22.627417,28 28,22.627417 28,16 C28,9.372583 22.627417,4 16,4 Z M11.7573593,10.3431458 L15.9992929,14.5850793 L20.2426407,10.3431458 C20.633165,9.95262146 21.26633,9.95262146 21.6568542,10.3431458 C22.0473785,10.73367 22.0473785,11.366835 21.6568542,11.7573593 L17.4135065,15.9992929 L21.6568542,20.2426407 C22.0473785,20.633165 22.0473785,21.26633 21.6568542,21.6568542 C21.26633,22.0473785 20.633165,22.0473785 20.2426407,21.6568542 L15.9992929,17.4135065 L11.7573593,21.6568542 C11.366835,22.0473785 10.73367,22.0473785 10.3431458,21.6568542 C9.95262146,21.26633 9.95262146,20.633165 10.3431458,20.2426407 L14.5850793,15.9992929 L10.3431458,11.7573593 C9.95262146,11.366835 9.95262146,10.73367 10.3431458,10.3431458 C10.73367,9.95262146 11.366835,9.95262146 11.7573593,10.3431458 Z" id="形状结合" stroke="none" stroke-width="1"/></svg>