<svg width="24px" height="24px" version="1.1" xmlns="http://www.w3.org/2000/svg" xmlns:xlink="http://www.w3.org/1999/xlink" viewBox="0 0 24 24"><title>comm_icon_input_delete</title><path d="M12,0 C18.627417,0 24,5.372583 24,12 C24,18.627417 18.627417,24 12,24 C5.372583,24 0,18.627417 0,12 C0,5.372583 5.372583,0 12,0 Z M17.2173913,6.7826087 C16.8160415,6.38125891 16.1831369,6.35259107 15.7487078,6.69660517 L15.6521739,6.7826087 L12,10.4347826 L8.34782609,6.7826087 C7.91560324,6.35038585 7.21483154,6.35038585 6.7826087,6.7826087 C6.38125891,7.18395848 6.35259107,7.81686314 6.69660517,8.2512922 L6.7826087,8.34782609 L10.4347826,12 L6.7826087,15.6521739 C6.35038585,16.0843968 6.35038585,16.7851685 6.7826087,17.2173913 C7.18395848,17.6187411 7.81686314,17.6474089 8.2512922,17.3033948 L8.34782609,17.2173913 L12,13.5652174 L15.6521739,17.2173913 C16.0843968,17.6496142 16.7851685,17.6496142 17.2173913,17.2173913 C17.6187411,16.8160415 17.6474089,16.1831369 17.3033948,15.7487078 L17.2173913,15.6521739 L13.5652174,12 L17.2173913,8.34782609 C17.6496142,7.91560324 17.6496142,7.21483154 17.2173913,6.7826087 Z" id="形状" stroke="none" stroke-width="1"/></svg>