<svg width="18px" height="18px" version="1.1" xmlns="http://www.w3.org/2000/svg" xmlns:xlink="http://www.w3.org/1999/xlink" viewBox="0 0 18 18"><title>comm_icon_checkbox_fill@2x</title><path d="M9,0 C13.9705627,0 18,4.02943725 18,9 C18,13.9705627 13.9705627,18 9,18 C4.02943725,18 0,13.9705627 0,9 C0,4.02943725 4.02943725,0 9,0 Z M12.0855163,6.43258567 L12.0013979,6.50520382 L7.93553391,10.5710678 L5.99099026,8.62652416 C5.69809704,8.33363094 5.2232233,8.33363094 4.93033009,8.62652416 C4.66406352,8.89279073 4.63985747,9.30945441 4.85771193,9.6030659 L4.93033009,9.68718434 L7.40520382,12.1620581 C7.67147038,12.4283246 8.08813407,12.4525307 8.38174556,12.2346762 L8.46586399,12.1620581 L13.0620581,7.56586399 C13.3549513,7.27297077 13.3549513,6.79809704 13.0620581,6.50520382 C12.7957915,6.23893726 12.3791278,6.21473121 12.0855163,6.43258567 Z" id="形状" stroke="none" stroke-width="1"/></svg>