<svg width="36px" height="36px" viewBox="0 0 36 36" version="1.1" xmlns="http://www.w3.org/2000/svg" xmlns:xlink="http://www.w3.org/1999/xlink"><title>curtain_icon_cancel</title><g id="curtain_icon_cancel" stroke="none" stroke-width="1"><path d="M18,3 C26.2842712,3 33,9.71572875 33,18 C33,26.2842712 26.2842712,33 18,33 C9.71572875,33 3,26.2842712 3,18 C3,9.71572875 9.71572875,3 18,3 Z M18,4 C10.2680135,4 4,10.2680135 4,18 C4,25.7319865 10.2680135,32 18,32 C25.7319865,32 32,25.7319865 32,18 C32,10.2680135 25.7319865,4 18,4 Z M11.8704702,11.1493491 L18,17.2788789 L24.1295298,11.1493491 C24.3286619,10.950217 24.6515188,10.950217 24.8506509,11.1493491 C25.049783,11.3484812 25.049783,11.6713381 24.8506509,11.8704702 L18.7211211,18 L24.8506509,24.1295298 C25.049783,24.3286619 25.049783,24.6515188 24.8506509,24.8506509 C24.6515188,25.049783 24.3286619,25.049783 24.1295298,24.8506509 L18,18.7211211 L11.8704702,24.8506509 C11.6713381,25.049783 11.3484812,25.049783 11.1493491,24.8506509 C10.950217,24.6515188 10.950217,24.3286619 11.1493491,24.1295298 L17.2788789,18 L11.1493491,11.8704702 C10.950217,11.6713381 10.950217,11.3484812 11.1493491,11.1493491 C11.3484812,10.950217 11.6713381,10.950217 11.8704702,11.1493491 Z" id="形状结合"/></g></svg>