<?xml version="1.0" standalone="no"?>
<!DOCTYPE svg PUBLIC "-//W3C//DTD SVG 1.1//EN" "http://www.w3.org/Graphics/SVG/1.1/DTD/svg11.dtd" >
<svg xmlns="http://www.w3.org/2000/svg" xmlns:xlink="http://www.w3.org/1999/xlink" version="1.1">
<metadata>
Created by FontForge 20190801 at Thu Aug 16 21:17:36 2018
 By Unknown

Created by iconfont

</metadata>
<defs>
<font d="iconfont" horiz-adv-x="1024" >
  <font-face
    font-family="iconfont"
    font-weight="400"
    font-stretch="normal"
    units-per-em="1024"
    panose-1="2 0 5 3 0 0 0 0 0 0"
    ascent="896"
    descent="-128"
    bbox="50.4961 -77 973.504 845.04"
    underline-thickness="0"
    underline-position="10"
    unicode-range="U+E901-E967"
  />
<missing-glyph/>
    <glyph glyph-name=".notdef"/>
    <glyph glyph-name=".null" horiz-adv-x="0"/>
    <glyph glyph-name="nonmarkingreturn"/>
    <glyph glyph-name="add-circle" unicode="&#xe901;" d="M512 845q196 -5 326 -135t135 -326q-5 -196 -135 -326t-326 -135q-196 5 -326 135t-135 326q5 196 135 326t326 135zM512 -11q168 4 279.5 115.5t115.5 279.5q-4 168 -115.5 279.5t-279.5 115.5q-168 -4 -279.5 -115.5t-115.5 -279.5q4 -168 115.5 -279.5t279.5 -115.5z M545 581v-164h164v-66h-164v-164h-66v164h-164v66h164v164h66z"/>
    <glyph glyph-name="align-center" unicode="&#xe902;" d="M307 497v82h410v-82h-410zM307 169v82h410v-82h-410zM102 333v82h820v-82h-820zM102 5v82h820v-82h-820zM102 660v82h820v-82h-820z"/>
    <glyph glyph-name="align-left" unicode="&#xe903;" d="M102 497v82h410v-82h-410zM102 169v82h410v-82h-410zM102 333v82h820v-82h-820zM102 5v82h820v-82h-820zM102 660v82h820v-82h-820z"/>
    <glyph glyph-name="arrow-down" unicode="&#xe905;" d="M667 180l-118 -119v784h-73v-782l-117 117l-52 -51l206 -206l206 206z"/>
    <glyph glyph-name="arrow-left" unicode="&#xe907;" d="M308 537l-119 -118h784v-73h-782l117 -117l-51 -52l-206 206l206 206z"/>
    <glyph glyph-name="arrow-right" unicode="&#xe908;" d="M716 229l119 118h-784v73h782l-117 117l51 52l206 -206l-206 -206z"/>
    <glyph glyph-name="arrow-up" unicode="&#xe909;" d="M667 588l-118 119v-784h-73v782l-117 -117l-52 51l206 206l206 -206z"/>
    <glyph glyph-name="bell" unicode="&#xe90a;" d="M398 -11h195v-66h-195v66zM818 87l72 1v-65h-788v65h73l36 394q8 81 55 144.5t122 94.5v16q2 46 32.5 76.5t76.5 31.5q46 -1 76.5 -31.5t31.5 -76.5v-17q75 -31 122 -94.5t55 -144.5zM496 776q-16 0 -27.5 -10.5t-14.5 -26.5q21 4 42 4t42 -4q-3 16 -14.5 26.5 t-27.5 10.5zM239 87h513l-35 389q-9 89 -70.5 146t-150.5 59q-89 -2 -150.5 -59t-70.5 -146z"/>
    <glyph glyph-name="blocked" unicode="&#xe90b;" d="M512 845q196 -5 326 -135t135 -326q-5 -196 -135 -326t-326 -135q-196 5 -326 135t-135 326q5 196 135 326t326 135zM907 384q-1 112 -57 204.5t-155.5 144.5t-207.5 45t-201 -70l489 -614q63 56 97 131t35 159zM512 -11q58 1 112.5 17.5t102.5 48.5l-491 609 q-86 -87 -109 -202t22 -228q47 -112 144 -177.5t219 -67.5z"/>
    <glyph glyph-name="bookmark" unicode="&#xe90c;" d="M758 -60q-9 0 -18.5 3.5t-18.5 8.5l-215 166l-203 -166q-20 -14 -45.5 -13t-40.5 19q-5 9 -8.5 18.5t-3.5 18.5v737q0 28 16.5 44.5t44.5 17.5h492q28 -1 44.5 -17.5t16.5 -44.5v-731q0 -28 -16.5 -44.5t-44.5 -16.5zM506 198l252 -197v731h-492v-731zM696 542 q-14 0 -22 8t-8 22t8 22.5t22 8.5t22.5 -8.5t8.5 -22.5t-8.5 -22t-22.5 -8zM573 542q-14 0 -22 8t-8 22t8 22.5t22 8.5t22.5 -8.5t8.5 -22.5t-8.5 -22t-22.5 -8zM451 542q-14 0 -22.5 8t-8.5 22t8.5 22.5t22.5 8.5t22 -8.5t8 -22.5t-8 -22t-22 -8zM328 542q-14 0 -22.5 8 t-8.5 22t8.5 22.5t22.5 8.5t22 -8.5t8 -22.5t-8 -22t-22 -8z"/>
    <glyph glyph-name="bullet-list" unicode="&#xe90d;" d="M922 343h-683v68h683v-68zM922 70h-683v68h683v-68zM922 616h-683v68h683v-68zM143 609q-23 1 -34.5 21t0 40t34.5 21q18 0 29.5 -11.5t11.5 -29t-11.5 -29t-29.5 -12.5zM143 336q-17 1 -28.5 12.5t-11.5 29t11.5 29t29 11.5t29 -11.5t11.5 -29t-11.5 -29t-29.5 -12.5z M143 63q-17 1 -28.5 12.5t-11.5 28.5t11.5 29t29 12t29 -12t11.5 -29t-11.5 -28.5t-29.5 -12.5z"/>
    <glyph glyph-name="calendar" unicode="&#xe90e;" d="M896 768h-154v77h-76v-77h-308v77h-76v-77h-154q-33 -1 -54.5 -22.5t-22.5 -54.5v-691q1 -33 22.5 -54.5t54.5 -22.5h768q33 1 54.5 22.5t22.5 54.5v691q-1 33 -22.5 54.5t-54.5 22.5zM896 0h-768v461h768v-461zM128 538v153h154v-77h76v77h308v-77h76v77h154v-153h-768z"/>
    <glyph glyph-name="camera" unicode="&#xe90f;" d="M886 13h-754q-34 1 -57 24t-24 56v458q1 33 24 56t57 24h160l19 56q5 28 25.5 41.5t48.5 13.5h248q28 0 49 -15.5t31 -39.5l19 -56h160q34 -1 57 -24t24 -56v-458q-6 -33 -30 -56t-57 -24zM132 575q-10 0 -17.5 -7.5t-7.5 -16.5v-458q0 -10 7.5 -17t17.5 -8h754 q10 1 17.5 8t7.5 17v458q0 9 -7.5 16.5t-17.5 7.5h-198l-31 93q-7 19 -24 19h-248q-9 0 -16.5 -5t-8.5 -14l-30 -93h-198zM509 167q-76 2 -126.5 52.5t-52.5 127.5q1 76 52 126.5t127 52.5q76 -2 126.5 -52.5t52.5 -126.5q-2 -77 -52.5 -127.5t-126.5 -52.5zM509 476 q-53 -1 -90.5 -37t-39.5 -92q1 -53 37 -91t93 -39q53 1 90.5 37t39.5 93q-2 52 -39.5 90t-90.5 39z"/>
    <glyph glyph-name="check-circle" unicode="&#xe910;" d="M512 845q-196 -5 -326 -135t-135 -326q5 -196 135 -326t326 -135q196 5 326 135t135 326q-5 196 -135 326t-326 135zM512 -11q-168 4 -279.5 115.5t-115.5 279.5q4 168 115.5 279.5t279.5 115.5q168 -4 279.5 -115.5t115.5 -279.5q-4 -168 -115.5 -279.5t-279.5 -115.5z M436 300l-66 62l-45 -48l117 -110l260 324l-51 41z"/>
    <glyph glyph-name="chevron-down" unicode="&#xe911;" d="M222 589l-68 -69l342 -341l342 341l-69 69l-273 -274z"/>
    <glyph glyph-name="chevron-left" unicode="&#xe912;" d="M717 674l-69 68l-341 -342l341 -342l69 69l-274 273z"/>
    <glyph glyph-name="chevron-right" unicode="&#xe913;" d="M307 674l69 68l341 -342l-341 -342l-69 69l274 273z"/>
    <glyph glyph-name="chevron-up" unicode="&#xe914;" d="M496 453l273 -274l69 69l-342 341l-342 -341l68 -69z"/>
    <glyph glyph-name="clock" unicode="&#xe915;" d="M512 845q196 -5 326 -135t135 -326q-5 -196 -135 -326t-326 -135q-196 5 -326 135t-135 326q5 196 135 326t326 135zM117 384q1 -107 53 -197.5t145 -144t197 -53.5t197 53.5t145 144t53 197.5q-4 168 -115.5 279.5t-279.5 115.5q-168 -4 -279.5 -115.5t-115.5 -279.5z M315 351v66h230v-66h-230zM479 713h66v-296h-66v296z"/>
    <glyph glyph-name="close-circle" unicode="&#xe916;" d="M512 845q196 -5 326 -135t135 -326q-5 -196 -135 -326t-326 -135q-196 5 -326 135t-135 326q5 196 135 326t326 135zM512 -11q168 4 279.5 115.5t115.5 279.5q-4 168 -115.5 279.5t-279.5 115.5q-168 -4 -279.5 -115.5t-115.5 -279.5q4 -168 115.5 -279.5t279.5 -115.5z M629 547l46 -46l-116 -117l116 -117l-46 -46l-117 116l-117 -116l-46 46l116 117l-116 117l46 46l117 -116z"/>
    <glyph glyph-name="close" unicode="&#xe917;" d="M922 731l-63 63l-347 -348l-347 348l-63 -63l348 -347l-348 -347l63 -63l347 348l347 -348l63 63l-348 347z"/>
    <glyph glyph-name="credit-card" unicode="&#xe918;" d="M907 742h-790q-28 0 -46.5 -18.5t-19.5 -46.5v-593q1 -28 19.5 -46.5t46.5 -19.5h790q28 1 46.5 19.5t19.5 46.5v593q-1 28 -19.5 46.5t-46.5 18.5zM907 84h-790v395h790v-395zM907 578h-790v99h790v-99zM644 249h197v-66h-197v66z"/>
    <glyph glyph-name="download-cloud" unicode="&#xe919;" d="M391 145l101 -101v456h63v-458l102 103l45 -45l-178 -177l-178 177zM845 571v3q65 -30 96.5 -91t17.5 -132q-17 -70 -70.5 -112t-125.5 -42h-160v63h159q50 0 86.5 31t45 80t-16 90t-72.5 58q-18 7 -20 26q-13 101 -84 166t-173 69q-102 -1 -175 -64t-88 -163 q-2 -11 -9.5 -18.5t-18.5 -8.5q-57 -4 -92.5 -43.5t-34.5 -96.5q4 -56 43.5 -92t95.5 -34h194v-63h-194q-77 1 -131.5 49.5t-64.5 124.5q-7 77 35.5 136t117.5 77q25 117 113 188.5t208 72.5h4q120 -5 206.5 -80t107.5 -194z"/>
    <glyph glyph-name="download" unicode="&#xe91a;" d="M350 411l124 -124v558h76v-559l126 125l54 -55l-217 -217l-218 217zM896 691q31 0 52 -19.5t25 -50.5v-628q-4 -30 -25 -49.5t-52 -20.5h-768q-31 1 -52 20.5t-25 49.5v628q4 31 25 50.5t52 19.5h269v-77h-269v-614h768v614h-269v77h269z"/>
    <glyph glyph-name="edit" unicode="&#xe91b;" d="M102 -10h863v-67h-863v67zM900 618l-469 -469l-235 -47l47 235l469 469q29 29 68 36.5t76.5 -8t59.5 -48.5t22 -74q0 -27 -10 -51t-28 -43zM281 185l120 25l451 455q20 21 20 47t-20 46t-46.5 20t-46.5 -19l-455 -456z"/>
    <glyph glyph-name="equalizer" unicode="&#xe91c;" d="M545 845h-66v-362h-99v-198h99v-362h66v362h99v198h-99v362zM578 351h-132v66h132v-66zM874 121h99v-198h-264v198h99v724h66v-724zM907 -11v66h-132v-66h132zM51 647v198h264v-198h-99v-724h-66v724h-99zM117 779v-66h132v66h-132z"/>
    <glyph glyph-name="external-link" unicode="&#xe91d;" d="M840 769h-174v76h306v-307h-77v177l-404 -407l-55 52zM436 769v-77h-308v-692h692v307h77v-307q-1 -33 -23 -54.5t-54 -22.5h-692q-32 1 -54 23t-23 54v692q1 32 22.5 54t54.5 23h308z"/>
    <glyph glyph-name="eye" unicode="&#xe91e;" d="M791 576q-122 115 -279 115t-279 -115l-182 -182l182 -182q122 -115 279 -115t279 115l182 182zM745 259q-47 -47 -107 -71.5t-126 -24.5t-126 24.5t-107 71.5l-135 135l135 132q47 46 107 71t126 25t126 -25t107 -71l135 -132zM512 526q-56 -2 -93 -39t-39 -93 q2 -56 39 -93t93 -39q56 2 93 39t39 93q-2 56 -39 93t-93 39zM512 328q-18 0 -33.5 8.5t-25 24t-9.5 33.5t9.5 33.5t25 24t33.5 8.5q27 -2 45 -20.5t18 -45.5t-18 -45.5t-45 -20.5z"/>
    <glyph glyph-name="file-audio" unicode="&#xe91f;" d="M698 845l203 -203v-719h-799v922h596zM717 740v-80h80zM840 -15v614h-185v184h-491v-798h676zM410 329h-13q-28 -1 -44.5 -17.5t-16.5 -44.5t16.5 -44.5t44.5 -16.5t44.5 16.5t17.5 44.5v160l116 31v-135h-12q-28 -1 -44.5 -17.5t-16.5 -44.5t16.5 -44.5t44.5 -16.5 t44.5 16.5t17.5 44.5v270l-215 -61v-141z"/>
    <glyph glyph-name="file-code" unicode="&#xe920;" d="M698 845l203 -203v-719h-799v922h596zM717 740v-80h80zM840 -15v614h-185v184h-491v-798h676zM539 488l104 -104l-104 -104l43 -43l147 147l-147 147zM422 531l-148 -147l148 -147l43 43l-105 104l105 104z"/>
    <glyph glyph-name="file-generic" unicode="&#xe921;" d="M698 845l203 -203v-719h-799v922h596zM717 740v-80h80zM840 -15v614h-185v184h-491v-798h676z"/>
    <glyph glyph-name="file-jpg" unicode="&#xe923;" d="M699 845h-597v-922h799v720zM717 740l79 -80h-79v80zM840 -15h-676v798h491v-184h185v-614zM340 431h-53v-200q1 -23 -24 -22h-7v-39h14q69 0 70 59v202zM313 453q12 -1 20 7t8 19.5t-8 19.5t-19.5 8t-20 -8t-8.5 -19.5t8 -19t20 -7.5zM487 434q37 -1 58 -27t21 -72.5 t-20.5 -72.5t-57.5 -26q-43 1 -60 35h-1v-96h-53v256h52v-33h1q8 17 24 26t36 10zM470 278q19 1 30.5 16t11.5 41t-11.5 41t-31 15t-31 -15t-11.5 -41t11.5 -41t31.5 -16zM682 280q20 0 31.5 14.5t11.5 40.5t-11.5 41t-31 15t-31 -15t-11.5 -41t11 -40.5t31 -14.5zM681 166 q-38 0 -61.5 16t-27.5 43h52q3 -11 13.5 -17t25.5 -6q20 0 31 10.5t11 27.5v33h-1q-7 -15 -22.5 -24t-37.5 -9q-35 0 -56 25t-21.5 70.5t20.5 71.5t58 27q21 -1 36.5 -10.5t23.5 -25.5h1v33h52v-190q-1 -35 -27 -55t-70 -20z"/>
    <glyph glyph-name="file-new" unicode="&#xe924;" d="M698 845l203 -203v-719h-799v922h596zM717 740v-80h80zM840 -15v614h-185v184h-491v-798h676zM532 538h-61v-123h-123v-62h123v-123h61v123h123v62h-123v123z"/>
    <glyph glyph-name="file-png" unicode="&#xe925;" d="M699 845h-597v-922h799v720zM717 740l79 -80h-79v80zM840 -15h-676v798h491v-184h185v-614zM339 476q33 -1 52 -24t19 -65t-18.5 -65.5t-51.5 -23.5q-39 1 -54 31h-1v-86h-47v231h46v-30h1q7 15 21 23.5t33 8.5zM323 336q18 0 28 13.5t10 37t-10 37t-27.5 13.5t-28 -13.5 t-10.5 -37t10.5 -37t27.5 -13.5zM434 300h48v99q0 17 9 27.5t25 10.5q32 -1 32 -36v-101h47v111q0 31 -15.5 48t-44.5 17q-40 0 -54 -34h-1v32h-46v-174zM705 338q18 0 28.5 13t10.5 36t-10.5 36.5t-28 13.5t-27.5 -13t-10 -36.5t10 -36.5t27 -13zM705 235q-35 0 -56 14.5 t-25 38.5h47q3 -9 12 -14.5t23 -5.5q18 0 28 9t10 24v31h-1q-6 -14 -20.5 -22.5t-33.5 -8.5q-32 1 -51 23.5t-19 63.5t19 64t52 24q19 0 33 -9t21 -23h1v30h46v-171q0 -32 -23.5 -50t-62.5 -18z"/>
    <glyph glyph-name="file-svg" unicode="&#xe926;" d="M699 845h-597v-922h799v720zM717 740l79 -80h-79v80zM840 -15h-676v798h491v-184h185v-614zM230 418q0 -41 53 -53l34 -8q24 -5 23 -18q-1 -18 -31.5 -18t-34.5 23h-49q2 -27 23.5 -43t59 -16t60 16t22.5 44q0 20 -12 32t-40 18l-35 7q-25 6 -25 19q1 9 8.5 14.5 t20.5 5.5q29 -1 32 -24h46q-1 27 -21.5 43t-56 16t-56.5 -15.5t-21 -42.5zM584 473h-52l-39 -141h-1l-38 141h-54l64 -185h57zM687 328q19 0 30 14t11 38.5t-11 39t-30 14.5t-29.5 -14t-10.5 -39t10.5 -39t29.5 -14zM686 218q-37 1 -59.5 16.5t-25.5 40.5h49q3 -10 13 -16 t25 -6q19 0 29.5 10t10.5 26v32h-1q-6 -14 -21.5 -23t-35.5 -9q-34 0 -54.5 24.5t-20.5 68t20.5 68.5t55.5 25q20 0 35 -9t22 -25h1v32h50v-183q-1 -33 -26 -52.5t-67 -19.5z"/>
    <glyph glyph-name="file-video" unicode="&#xe927;" d="M698 845l203 -203v-719h-799v922h596zM717 740v-80h80zM840 -15v614h-185v184h-491v-798h676zM440 255l178 111l-178 110v-221z"/>
    <glyph glyph-name="filter" unicode="&#xe928;" d="M874 596q41 1 69.5 29.5t29.5 69.5q-1 41 -29.5 69t-69.5 30q-35 -1 -58.5 -18.5t-33.5 -47.5h-731v-66h731q10 -30 33.5 -47.5t58.5 -18.5zM874 728q15 0 24 -9t9 -24t-9 -24t-24 -9t-24 9t-9 24t9 24t24 9zM150 135q35 0 58.5 -17.5t33.5 -48.5h731v-65h-731 q-10 -30 -33.5 -48t-58.5 -18q-41 1 -69.5 29.5t-29.5 69.5q1 40 29.5 68.5t69.5 29.5zM512 464q35 0 58.5 -17.5t33.5 -47.5h369v-66h-369q-11 -30 -36.5 -48t-55.5 -18t-55.5 18t-36.5 48h-369v66h369q10 30 33.5 47.5t58.5 17.5zM512 333q15 0 24 9t9 24t-9 23.5t-24 8.5 t-24 -8.5t-9 -23.5t9 -24t24 -9z"/>
    <glyph glyph-name="folder" unicode="&#xe929;" d="M915 627h-403l-115 115h-346v-633q1 -25 17 -41t41 -17h806q25 1 41 17t17 41v461q-1 24 -17 40.5t-41 16.5zM109 685h264l58 -58h-322v58zM915 109h-806v461h806v-461z"/>
    <glyph glyph-name="font-color" unicode="&#xe92a;" d="M354 33q-28 -26 -62 -42.5t-77 -16.5q-36 0 -65.5 11t-51.5 31t-34.5 46t-12.5 56.5t9.5 54.5t24.5 41.5t36 30t43.5 19.5t46 10t44.5 3q34 0 57 -2t42 -6l1 41q0 26 -7.5 44.5t-22 32t-33 19t-41.5 5.5t-43 -2.5t-37.5 -7.5t-33.5 -12q-14 -6 -26 -13l-29 61 q39 24 83 37q23 7 46.5 11t47.5 4q42 0 75.5 -9.5t58 -31.5t37 -55t12.5 -79v-245h54v-81h-142v45zM234 48q18 0 36 4q33 8 62 29q12 8 22 20v111h-102q-26 0 -46 -5.5t-36.5 -17t-25 -27.5t-8.5 -36t7.5 -34.5t20.5 -24t31 -14.5t39 -5zM797 767q14 -22 34 -57 q31 -52 59 -105q40 -75 61.5 -132.5t21.5 -94.5q-3 -96 -66 -160t-158 -66q-95 2 -158.5 66t-65.5 160q0 38 21.5 95t60.5 132q28 53 59 105q21 35 35 57q8 13 20.5 19.5t27.5 6.5t27.5 -6.5t20.5 -19.5zM718 680q-30 -51 -58 -103q-35 -68 -55 -119.5t-20 -79.5 q1 -71 47.5 -118t116.5 -48q69 1 115.5 48t48.5 118q-1 28 -20.5 79.5t-55.5 119.5q-27 52 -57 103q-15 25 -31 51q-13 -21 -31 -51z"/>
    <glyph glyph-name="heart" unicode="&#xe92b;" d="M513 15l-399 397q-64 70 -63.5 159t65.5 157q69 65 158 66t158 -63l81 -80l79 80q69 64 158 63t157 -66q66 -68 66.5 -157t-63.5 -159zM274 731q-32 0 -61 -11.5t-52 -34.5q-46 -49 -46 -112.5t46 -112.5l352 -352l351 351q30 31 41 71.5t0 82.5t-41 72t-72 41.5 t-82.5 0.5t-71.5 -42l-125 -127l-127 127q-22 23 -51.5 34.5t-60.5 11.5z"/>
    <glyph glyph-name="help" unicode="&#xe92c;" d="M512 845q-196 -5 -326 -135t-135 -326q5 -196 135 -326t326 -135q196 5 326 135t135 326q-5 196 -135 326t-326 135zM512 -11q-168 4 -279.5 115.5t-115.5 279.5q4 168 115.5 279.5t279.5 115.5q168 -4 279.5 -115.5t115.5 -279.5q-4 -168 -115.5 -279.5t-279.5 -115.5z M512 614q-26 3 -50.5 -5.5t-43.5 -26.5t-29 -42t-9 -51h60q-1 30 20.5 51t51.5 19q27 0 46 -14t20 -45q0 -23 -13 -37t-35 -29q-27 -16 -42.5 -41.5t-16.5 -56.5v-23h60v18q0 25 11.5 39.5t37.5 33.5q29 16 45.5 42t18.5 58q-1 25 -11.5 47t-30 38t-42.5 22.5t-48 2.5z M462 215q1 -20 14 -33t32.5 -12.5t32.5 14t13 33t-14.5 33t-34 12.5t-31.5 -14.5t-12 -33.5v1z"/>
    <glyph glyph-name="home" unicode="&#xe92d;" d="M973 501l-461 344l-461 -349l35 -48l68 49v-469q0 -25 17 -42t43 -17h596q26 0 43 17t17 42v478l69 -52zM810 28h-596v515l298 227l298 -221v-521z"/>
    <glyph glyph-name="image" unicode="&#xe92e;" d="M866 794h-708q-46 -2 -76 -32t-31 -75v-567q1 -45 31 -75t76 -31h708q46 1 76 31t31 75v567q-1 45 -31 75t-76 32zM158 723h708q16 -1 26 -11t10 -25v-339l-182 181l-178 -183l-108 109l-312 -321v553q0 15 10 25t26 11zM704 85h-532l263 269zM902 120q0 -15 -10 -25 t-26 -10h-62l-213 212l134 131l180 -181zM264 510q-20 0 -36.5 9t-26.5 26t-10 36t10 36t26.5 26t36.5 9q30 -1 50 -21t20 -50t-20 -50t-50 -21z"/>
    <glyph glyph-name="iphone-x" unicode="&#xe92f;" d="M797 845h-526q-28 -1 -46.5 -19.5t-19.5 -46.5v-790q1 -28 19.5 -46.5t46.5 -19.5h526q28 1 46.5 19.5t19.5 46.5v790q-1 28 -19.5 46.5t-46.5 19.5zM797 -11h-526v790h65q1 -28 19.5 -46.5t46.5 -19.5h264q28 1 46.5 19.5t18.5 46.5h66v-790z"/>
    <glyph glyph-name="iphone" unicode="&#xe930;" d="M764 845h-460q-42 -1 -70 -29t-29 -70v-724q1 -42 29 -70t70 -29h460q42 1 70 29t29 70v724q-1 42 -29 70t-70 29zM797 22q0 -14 -9.5 -23.5t-23.5 -9.5h-460q-14 0 -23.5 9.5t-9.5 23.5v724q0 14 9.5 23.5t23.5 9.5h460q14 0 23.5 -9.5t9.5 -23.5v-724zM534 187 q-28 -1 -46.5 -19.5t-18.5 -46.5t18.5 -46.5t46.5 -18.5t46.5 18.5t18.5 46.5t-18.5 46.5t-46.5 19.5z"/>
    <glyph glyph-name="lightning-bolt" unicode="&#xe931;" d="M303 -26q-4 0 -9 1t-9 6q-10 5 -13.5 16t0.5 21l150 338h-188q-9 0 -14.5 4t-9.5 8q-5 9 -5 16t5 16l212 375q5 9 12.5 14t12.5 5h300q9 -1 15 -4.5t10 -8.5q5 -9 5 -15.5t-5 -15.5l-131 -225h144q9 0 17.5 -5t13 -14.5t2 -17.5t-7.5 -13l-488 -488q-5 -5 -9.5 -8.5 t-9.5 -4.5zM285 425h181q9 -1 14.5 -4.5t10.5 -8.5t5 -13.5t-5 -17.5l-100 -232l319 313h-119q-9 0 -15 4t-10 9q-5 9 -5 15.5t5 15.5l131 225h-231z"/>
    <glyph glyph-name="link" unicode="&#xe932;" d="M105 372q1 -33 13 -62.5t35 -52.5t52.5 -35.5t62.5 -12.5h190v-54h-190q-59 1 -108.5 29.5t-79 79.5t-29.5 108t29.5 108t79 79.5t108.5 29.5h190v-54h-190q-69 -2 -115 -48t-48 -115zM756 589q92 -3 153 -64t64 -153q-3 -92 -64 -153.5t-153 -63.5h-190v54h190 q69 2 115 48t48 115q-2 69 -48 115t-115 48h-190v54h190zM295 399h434v-54h-434v54z"/>
    <glyph glyph-name="list" unicode="&#xe933;" d="M369 333v71h501v-71h-501zM369 46v72h501v-72h-501zM369 620v71h501v-71h-501zM154 333v71h143v-71h-143zM154 46v72h143v-72h-143zM154 620v71h143v-71h-143z"/>
    <glyph glyph-name="lock" unicode="&#xe934;" d="M794 581h-33q-3 112 -77.5 186.5t-186.5 77.5q-112 -3 -186 -77.5t-77 -186.5h-33q-42 -1 -69.5 -28.5t-29.5 -69.5v-461q1 -42 29 -70t70 -29h593q40 1 69 29.5t29 69.5v461q-1 42 -28.5 69.5t-69.5 28.5zM497 779q84 -2 140 -58t58 -140h-395q0 40 15 76t43 64t64 43 t75 15zM827 22q-1 -14 -10.5 -23.5t-22.5 -9.5h-593q-13 0 -23 9.5t-10 23.5v461q1 14 10 23t23 10h593q14 -1 23 -10t10 -23v-461zM530 308v109h-66v-109q-14 -9 -22.5 -23.5t-8.5 -32t8.5 -32t22.5 -24.5v-108h66v108q15 10 23 24.5t8 32t-8 32t-23 23.5z"/>
    <glyph glyph-name="mail" unicode="&#xe935;" d="M874 742h-724q-41 0 -69.5 -29t-29.5 -69v-527q1 -42 29 -70t70 -29h724q41 1 69.5 29.5t29.5 69.5v527q-1 40 -29.5 69t-69.5 29zM825 677l-313 -223l-309 223h622zM907 117q0 -14 -9.5 -23.5t-23.5 -9.5h-724q-14 0 -23.5 9.5t-9.5 23.5v527q-1 6 0 11l395 -283 l395 281q1 -5 0 -9v-527z"/>
    <glyph glyph-name="map-pin" unicode="&#xe936;" d="M771 751q-48 46 -109 70.5t-128 23.5q-67 1 -129 -23t-110 -71q-47 -50 -70 -113.5t-20 -131.5q1 -122 78.5 -262t227.5 -297l23 -24l24 24q303 314 306 559q3 69 -21 132t-72 113zM535 18q-130 140 -196.5 262.5t-67.5 227.5q-3 55 15 106t56 91q39 38 88.5 57t104.5 17 q54 1 103.5 -18t88.5 -57q38 -40 56.5 -91t16.5 -106q-2 -104 -68.5 -226.5t-196.5 -262.5zM535 647q-56 -1 -93.5 -38.5t-38.5 -92.5q1 -56 38.5 -93.5t93.5 -38.5q55 1 92.5 38.5t38.5 93.5q-1 55 -38.5 92.5t-92.5 38.5zM535 460q-25 0 -40.5 16t-15.5 40t15.5 40t40 16 t40.5 -16t16 -40t-16 -40t-40 -16z"/>
    <glyph glyph-name="menu" unicode="&#xe937;" d="M154 333v71h716v-71h-716zM154 46v72h716v-72h-716zM154 620v71h716v-71h-716z"/>
    <glyph glyph-name="message" unicode="&#xe938;" d="M907 794h-790q-28 -1 -46.5 -19.5t-19.5 -46.5v-527q1 -28 19.5 -46.5t46.5 -19.5h66v-197l263 197h461q28 1 46.5 19.5t19.5 46.5v527q-1 28 -19.5 46.5t-46.5 19.5zM907 201h-479l-177 -132v132h-134v527h790v-527zM249 563v-66h526v66h-526zM249 432v-66h263v66h-263z"/>
    <glyph glyph-name="money" unicode="&#xe939;" d="M915 598h58v-547q-1 -24 -17 -40.5t-41 -16.5h-691v57h691v547zM858 166q-1 -24 -17.5 -40.5t-40.5 -16.5h-691q-25 0 -41 16.5t-17 40.5v519q1 24 17 40.5t41 16.5h691q24 0 40.5 -16.5t17.5 -40.5v-519zM109 685v-519h691v519h-691zM454 272q-65 1 -108.5 44.5 t-44.5 109.5q1 65 44.5 108.5t108.5 44.5q66 -1 109.5 -44.5t44.5 -108.5q-2 -66 -45 -109t-109 -45zM454 522q-26 0 -48.5 -12.5t-36 -35.5t-13.5 -48.5t13.5 -48.5t36 -35.5t48.5 -12.5q41 2 67 29t26 67.5t-26 67.5t-67 29z"/>
    <glyph glyph-name="next" unicode="&#xe93a;" d="M773 685q-41 -2 -69 -30t-29 -68v-189q-5 5 -7 9t-6 4l-404 274q-10 4 -20 5t-19 1q-30 0 -47.5 -17.5t-17.5 -47.5v-541q0 -10 4 -19.5t9 -19.5q10 -10 23.5 -14.5t28.5 -4.5q10 0 19.5 3.5t19.5 9.5l404 267l13 13v-189q1 -41 29 -69t69 -29q40 1 68 29t29 69v456 q-1 40 -29 68t-68 30zM238 652l-19 -26zM219 92v534l404 -267zM805 131q0 -15 -8.5 -24t-23.5 -9t-24 9t-9 24v456q0 15 9 23.5t24 8.5t23.5 -8.5t8.5 -23.5v-456z"/>
    <glyph glyph-name="numbered-list" unicode="&#xe93b;" d="M922 370h-685v69h685v-69zM922 96h-685v69h685v-69zM922 644h-685v68h685v-68zM112 699l-8 20q7 3 14.5 7.5t16.5 15.5h33v-102h16v-24h-72v24h18v67zM125 427l-20 21q20 22 47 22q18 0 30 -10.5t13 -28.5q0 -15 -7.5 -23.5t-21.5 -16.5q-7 -5 -15 -12t-12 -12h32v14h30 v-38h-97v26q7 11 12.5 17.5t13.5 12.5q10 8 20.5 15t11 14.5t-4 10t-11 2.5t-12 -4.5t-9.5 -9.5zM124 161l-18 21q5 6 15.5 11.5t23.5 5.5q22 0 33.5 -10.5t11.5 -27.5q0 -9 -4.5 -14.5t-8.5 -8.5q5 -3 10.5 -10t6.5 -19q-1 -20 -16 -29.5t-34 -9.5q-13 0 -24.5 6t-17.5 14 l19 19q9 -11 24 -11.5t15 13.5t-14 13h-14v21h13q14 0 15 13q0 7 -4.5 10.5t-10.5 3.5q-11 -1 -21 -11z"/>
    <glyph glyph-name="pause" unicode="&#xe93c;" d="M154 26h215v716h-215v-716zM225 671h72v-574h-72v574zM655 742h215v-716h-215v716zM799 97v574h-72v-574h72z"/>
    <glyph glyph-name="phone" unicode="&#xe93d;" d="M853 264q-59 7 -115 29q-23 8 -46.5 3t-41.5 -22l-52 -52q-77 44 -139.5 106.5t-107.5 140.5l53 52q16 17 21 40t-3 46q-23 57 -32 118q-6 31 -29 49.5t-54 19.5h-122q-36 -1 -62 -27q-11 -13 -16.5 -29.5t-3.5 -33.5q10 -96 42 -186t84 -170q48 -75 110 -137.5 t137 -109.5q81 -52 171 -84t185 -43h7q32 1 56 22q26 25 26 61v122q1 32 -18 55.5t-50 29.5zM853 59q0 -6 -4.5 -10t-10.5 -4q-87 9 -169.5 37.5t-156.5 75.5q-68 44 -125 101t-101 125q-47 74 -76.5 156.5t-39.5 169.5q-1 5 0 11q6 6 15 4h122q12 0 14 -11q10 -67 33 -131 q4 -7 0 -14l-91 -89l26 -45q49 -86 118.5 -155t154.5 -119l46 -25l89 89q7 5 15 0q63 -24 130 -32q10 -3 11 -14v-120z"/>
    <glyph glyph-name="play" unicode="&#xe93e;" d="M275 26q-16 0 -30.5 8.5t-25.5 19.5q-6 10 -10 20.5t-4 21.5v576q0 32 19 51t51 19q11 0 21.5 -4t20.5 -10l436 -288q26 -16 31.5 -43.5t-10.5 -54.5l-21 -21l-436 -288q-10 -5 -20.5 -6.5t-21.5 -0.5zM275 672v-583l436 288zM296 700l-21 -28z"/>
    <glyph glyph-name="playlist" unicode="&#xe93f;" d="M147 463q-40 -1 -67.5 -28.5t-28.5 -66.5q1 -39 28.5 -66.5t67.5 -28.5q39 1 66.5 28.5t28.5 66.5q-1 39 -28.5 66.5t-66.5 28.5zM147 336q-15 1 -23.5 9.5t-8.5 23t8.5 23t23 8.5t23 -8.5t8.5 -23t-8.5 -23t-22.5 -9.5zM147 146q39 -2 66.5 -29t28.5 -67 q-1 -39 -28.5 -66.5t-66.5 -28.5q-40 1 -67.5 28.5t-28.5 66.5q1 40 28.5 67t67.5 29zM401 718h572v-64h-572v64zM274 82h699v-63h-699v63zM274 400h699v-64h-699v64zM83 845l254 -159l-254 -159v318z"/>
    <glyph glyph-name="prev" unicode="&#xe940;" d="M805 691q-10 0 -19.5 -4t-19.5 -9l-404 -267l-13 -13v189q-1 40 -29 68t-69 30q-40 -2 -68 -30t-29 -68v-456q1 -41 29 -69t68 -29q41 1 69 29t29 69v189q5 -5 7 -9t6 -4l404 -267q10 -6 19.5 -9.5t19.5 -3.5h13q15 4 24.5 10t14.5 15.5t9 19.5t4 20v534q0 30 -17.5 47.5 t-47.5 17.5zM284 131q0 -15 -9 -24t-24 -9t-23.5 9t-8.5 24v456q0 15 8.5 23.5t23.5 8.5t24 -8.5t9 -23.5v-456zM805 92l-404 267l404 267v-534z"/>
    <glyph glyph-name="reload" unicode="&#xe941;" d="M158 250q-12 -4 -18 -15.5t-2 -24.5q58 -164 202.5 -238.5t308.5 -25.5q162 57 235 202.5t24 311.5q-58 164 -202.5 238.5t-309.5 26.5l-19 -7l31 54q11 18 1 36t-31 17.5t-31 -18.5l-78 -136q-9 -15 -2 -31t24 -21l153 -35q14 -3 26.5 4.5t15.5 22t-4.5 26.5t-21.5 16 l-48 11l4 1q139 41 261 -22t171 -202q42 -141 -19.5 -264t-198.5 -171q-139 -42 -261 21.5t-171 202.5q-4 12 -15.5 18t-24.5 2zM213 568q14 -2 25 6t13 22q2 11 -2 20t-13 14.5t-19.5 5t-18.5 -6.5t-11.5 -15.5t-1 -19.5t9.5 -17t18 -9zM147 449q15 -2 26 6t13 22t-6 25 t-22 13.5t-25 -5.5t-13.5 -22.5t5.5 -25.5t22 -13zM171 341q2 14 -6.5 25.5t-21.5 13.5q-11 2 -20 -2.5t-14.5 -13.5t-5 -19t6.5 -18.5t15.5 -12t19.5 -1t17 10t9 17.5z"/>
    <glyph glyph-name="repeat-play" unicode="&#xe942;" d="M216 578v-66h-66v66q2 71 48 117t117 47h394q71 -1 117 -47t48 -117h99l-132 -204l-132 204h99q-1 41 -29.5 69t-69.5 30h-394q-41 -2 -69.5 -30t-29.5 -69zM808 183v66h66v-66q-2 -71 -48 -117t-117 -48h-394q-66 2 -112 47t-53 111h-99l132 204l132 -204h-99 q5 -40 31.5 -65.5t67.5 -26.5h394q41 1 69.5 29.5t29.5 69.5z"/>
    <glyph glyph-name="search" unicode="&#xe943;" d="M973 -20l-264 263q92 120 80.5 262.5t-122.5 245.5q-115 98 -257.5 93.5t-251.5 -109.5q-104 -111 -106.5 -253.5t97.5 -256.5q104 -109 246.5 -118.5t261.5 84.5l264 -264zM208 267q-81 94 -78.5 210.5t87.5 206.5q90 85 206.5 87.5t209.5 -78.5q82 -94 79.5 -210.5 t-88.5 -206.5q-89 -85 -206 -87.5t-210 78.5z"/>
    <glyph glyph-name="settings" unicode="&#xe944;" d="M885 252q-7 -20 -16 -38l62 -63l-186 -186l-63 62q-18 -9 -38 -16v-88h-264v88q-19 7 -38 16l-63 -62l-186 186l62 63q-9 18 -16 38h-88v264h88q7 19 16 38l-62 63l186 186l63 -62q19 9 38 16v88h264v-88q19 -7 38 -16l63 62l186 -186l-62 -63q9 -19 16 -38h88v-264h-88z M847 151l-51 49l18 38q7 16 13 33l14 39h73v145h-72l-13 40q-6 16 -14 33l-18 37l50 51l-102 102l-51 -50l-37 18q-16 7 -33 13l-40 14v73h-144v-73l-40 -12q-17 -6 -33 -14l-37 -18l-51 50l-101 -102l50 -51l-18 -37q-7 -16 -13 -33l-14 -40h-73v-144h73l12 -40 q6 -17 14 -33l18 -37l-50 -51l102 -101l51 50l37 -18q16 -7 33 -13l40 -14v-73h144v72l40 13q17 6 33 14l37 18l51 -50zM512 516q56 -2 93 -39t39 -93q-2 -56 -39 -93t-93 -39q-56 2 -93 39t-39 93q2 56 39 93t93 39zM512 327q24 1 40 17t16 40t-16 40t-40 16t-40 -16 t-16 -40t16 -40t40 -17z"/>
    <glyph glyph-name="share-2" unicode="&#xe945;" d="M487 711l-113 -113l-49 49l198 198l198 -198l-50 -49l-114 114v-509h-70v508zM872 483h69v-420q-1 -59 -40.5 -98.5t-98.5 -41.5h-560q-59 2 -98.5 41.5t-41.5 98.5v420h70v-420q1 -30 21 -49.5t49 -20.5h560q29 1 49 20.5t21 49.5v420z"/>
    <glyph glyph-name="share" unicode="&#xe946;" d="M790 232q-29 0 -55.5 -10t-47.5 -29l-288 144q17 48 0 97l288 144q42 -36 94.5 -39t97.5 29.5t58.5 83.5t-9 101.5t-69.5 74.5t-101 12.5t-87.5 -52.5t-33.5 -97q0 -24 8 -48l-288 -144q-49 40 -108 37.5t-104 -46.5q-43 -47 -43 -106.5t43 -105.5q45 -45 104 -47.5 t108 38.5l288 -145q-8 -23 -8 -48q1 -65 44.5 -108t108.5 -45q65 2 108 45t45 108q-2 65 -45 108.5t-108 44.5v3zM790 768q32 -1 53.5 -22.5t21.5 -54t-21.5 -54t-54 -21.5t-54 21.5t-21.5 54t21.5 54t54.5 22.5zM254 309q-32 1 -54 22.5t-22 54t22 54t54.5 21.5t54 -21.5 t21.5 -54t-21.5 -54t-54.5 -22.5zM790 3q-33 1 -54.5 22.5t-21.5 54t21.5 54t54 21.5t54 -21.5t21.5 -54t-21.5 -54t-53.5 -22.5z"/>
    <glyph glyph-name="shopping-bag-2" unicode="&#xe947;" d="M731 615v19q-7 91 -69.5 150t-153.5 61q-91 -2 -153.5 -61t-69.5 -150v-19h-131v-623q0 -29 19.5 -48.5t49.5 -20.5h553q28 1 48.5 21t20.5 48v623h-114zM354 634q5 62 48 102.5t106 41.5q62 -1 105 -41.5t49 -102.5v-19h-308v19zM776 -8h-553v553h553v-553z"/>
    <glyph glyph-name="shopping-bag" unicode="&#xe948;" d="M946 668v14l-64 163h-709l-64 -163l-7 -617q2 -60 42 -100t100 -42h567q61 2 100.5 42t41.5 100zM833 774l28 -71h-666l28 71h610zM684 632q-13 -56 -55.5 -91t-100.5 -36q-58 1 -101 36t-55 91h312zM811 -6h-567q-32 1 -51 20t-20 51v567h121q13 -87 76 -142t151 -56 q87 1 150.5 56t76.5 142h120v-567q9 -28 -10 -49t-47 -22z"/>
    <glyph glyph-name="shopping-cart" unicode="&#xe949;" d="M413 141q-26 0 -48.5 -13.5t-35.5 -36.5t-13 -48.5t13.5 -48.5t36 -36t49.5 -13q41 1 68.5 29t27.5 69.5t-28 69t-70 28.5zM413 10q-13 1 -22.5 10t-9.5 23t9.5 23t23 9t23 -9t9.5 -23t-9.5 -23t-23.5 -10zM675 141q41 -1 69 -28.5t28 -69t-27.5 -69.5t-69 -28t-69 27.5 t-28 69t27 69.5t69.5 29zM228 696h745l-58 -338q-4 -24 -22 -39t-43 -15h-549l11 -61h468q14 -1 23.5 -10t9.5 -23t-9.5 -23t-23.5 -10h-522l-102 551h-72q-19 1 -28 17t0 32t28 17h126zM850 369l46 261h-653l46 -261h561z"/>
    <glyph glyph-name="shuffle-play" unicode="&#xe94a;" d="M770 173h-65q-96 2 -161 67.5t-68 160.5q3 96 68 161.5t161 67.5h65v-98l203 131l-203 131v-98h-65q-89 -1 -157.5 -45t-104.5 -119q-35 75 -103.5 119t-157.5 45h-131v-66h131q96 -2 161 -67.5t68 -161.5q-3 -95 -68 -160.5t-161 -67.5h-131v-66h131q89 1 157.5 45 t103.5 119q36 -75 104.5 -119t157.5 -45h65v-98l203 131l-203 131v-98z"/>
    <glyph glyph-name="sketch" unicode="&#xe94b;" d="M775 794h-526l-198 -281l463 -583l459 577zM401 548l111 143l133 -143h-244zM649 491l-137 -431l-133 430zM551 736h177l-43 -143zM352 578l-49 158h173zM301 548h-155l108 151zM282 491h35l119 -387l-295 387h141zM708 491h178l-303 -391zM727 548l46 145l100 -145h-146 z"/>
    <glyph glyph-name="sound" unicode="&#xe94c;" d="M973 729q-12 60 -57.5 91.5t-105.5 21.5l-355 -56q-54 -12 -86.5 -50t-33.5 -92v-362h-107q-35 1 -67.5 -12.5t-58 -38.5t-38.5 -57.5t-13 -68.5t13 -68t38.5 -57.5t58 -38.5t68 -13t68 13t57.5 38.5t38.5 57.5t13.5 68v539q1 27 17.5 46t38.5 25l355 56q32 6 55.5 -9 t29.5 -47v-362h-106q-36 0 -68.5 -13t-57.5 -38.5t-38.5 -57.5t-13.5 -68t13.5 -68.5t38.5 -57.5t57.5 -38t68 -13t68 13t58 38t38.5 57.5t13 68.5v553zM335 105q-2 -44 -32.5 -74.5t-74.5 -31.5q-43 1 -74 31.5t-32 74.5q1 44 32 74.5t74 31.5h107v-106zM902 176 q-1 -44 -32 -74.5t-74 -31.5q-44 1 -74.5 31.5t-32.5 74.5q2 44 32.5 74.5t74.5 31.5h106v-106z"/>
    <glyph glyph-name="star" unicode="&#xe94d;" d="M970 497q-5 19 -19.5 32t-34.5 16l-239 35l-105 223q-8 19 -24.5 30.5t-37 11.5t-37 -11.5t-23.5 -30.5l-105 -223l-236 -36q-20 -3 -34.5 -16t-20 -32.5t-1 -38.5t18.5 -34l169 -171l-41 -244q-3 -21 4 -39.5t23 -31t35.5 -13.5t36.5 8l212 116l210 -116q18 -9 37 -7.5 t35 13.5t23.5 30.5t4.5 38.5l-42 245l171 172q15 15 20 34t0 39zM727 310q-13 -13 -18.5 -30t-2.5 -35l38 -234l-197 110q-16 8 -33 8t-33 -8l-197 -110l30 232q2 18 -3.5 35t-18.5 30l-162 168l223 34q18 3 32.5 14t22.5 28l103 212l100 -212q7 -17 21.5 -28t33.5 -14 l222 -34z"/>
    <glyph glyph-name="stop" unicode="&#xe94e;" d="M102 794v-820h820v820h-820zM840 56h-656v656h656v-656z"/>
    <glyph glyph-name="streaming" unicode="&#xe94f;" d="M512 458q-38 -1 -64.5 -27.5t-27.5 -64.5q1 -38 27.5 -64.5t64.5 -28.5q38 2 64.5 28.5t27.5 64.5q-1 38 -27.5 64.5t-64.5 27.5zM512 335q-14 0 -22.5 8.5t-8.5 22.5t8.5 22t22.5 8t22.5 -8t8.5 -22t-8.5 -22.5t-22.5 -8.5zM752 605q46 -46 72 -108t26 -131.5t-26 -131 t-72 -108.5l-43 43q37 42 58 91.5t21.5 105t-19 105.5t-60.5 91zM666 519q28 -32 44.5 -72t16.5 -81q0 -46 -14.5 -84t-46.5 -70l-43 43q18 23 30 50.5t12.5 60t-10 60t-32.5 50.5zM838 691q65 -65 99.5 -149t34.5 -176.5t-34.5 -176.5t-99.5 -149l-43 43q56 57 86 130 t30 153q0 83 -30.5 155t-85.5 127zM315 562q-37 -37 -58 -88.5t-21 -107.5t21 -107.5t58 -89.5l-43 -43q-46 51 -72 110.5t-26 129t24 131.5t74 108zM358 519l43 -43q-18 -23 -30 -50.5t-12.5 -60t10 -60t32.5 -50.5l-43 -43q-28 33 -44.5 72.5t-16.5 81.5q0 45 14.5 83 t46.5 70zM229 648q-55 -60 -85.5 -132t-30.5 -151t30.5 -152.5t85.5 -129.5l-43 -43q-65 65 -99.5 149t-34.5 176.5t34.5 176.5t99.5 149z"/>
    <glyph glyph-name="tag" unicode="&#xe950;" d="M51 706v-294q0 -27 10.5 -52.5t30.5 -44.5l351 -351q20 -20 45 -30.5t53 -10.5t53 10.5t45 30.5l293 293q20 20 30.5 45t10.5 53t-10.5 53t-30.5 45l-351 351q-19 20 -44.5 30.5t-52.5 10.5h-294q-59 -2 -98 -41t-41 -98zM120 706q1 30 20.5 49.5t49.5 20.5h294 q28 -1 48 -21l351 -351q20 -21 20 -48.5t-20 -49.5l-293 -293q-22 -20 -49.5 -20t-48.5 20l-351 351q-20 20 -21 48v294zM166 592q2 -59 41 -98t98 -41q58 2 97 41t41 98q-2 58 -41 97t-97 41q-59 -2 -98 -41t-41 -97zM235 592q0 19 9 35t25.5 26t35 10t35 -10t25.5 -26 t9 -35q-2 -29 -21.5 -48t-48 -19t-48 19t-21.5 48z"/>
    <glyph glyph-name="tags" unicode="&#xe951;" d="M841 187h-482q-44 0 -79 26l-176 132q-25 19 -39 46t-14 59v131q0 32 14 59.5t39 46.5l176 131q35 26 79 27h482q56 -2 93 -39t39 -93v-395q-2 -56 -39 -93t-93 -38zM359 779q-22 0 -40 -13l-176 -132q-12 -9 -19 -23t-7 -30v-131q0 -16 7 -29.5t19 -23.5l176 -131 q18 -13 40 -14h482q28 1 46.5 19.5t19.5 46.5v395q-1 28 -19.5 46.5t-46.5 19.5h-482zM380 384q-56 1 -93 38.5t-38 93.5q1 56 38 93t93 38q56 -1 93.5 -38t38.5 -93q-1 -56 -38.5 -93.5t-93.5 -38.5zM380 581q-18 1 -33.5 -7.5t-24.5 -24.5t-9 -33.5t9 -33t24.5 -24.5 t33.5 -8q28 1 46 19.5t18 46t-18 46t-46 19.5zM816 121h73l-60 -125q-8 -17 -24 -27t-35 -10q-15 0 -29 6l-329 156h155l203 -96z"/>
    <glyph glyph-name="text-italic" unicode="&#xe952;" d="M473 742h232l-19 -81h-67l-126 -554h65l-18 -81h-233l19 81h68l127 554h-67z"/>
    <glyph glyph-name="text-strikethrough" unicode="&#xe953;" d="M219 413h-168v66h922v-66h-754zM219 347h98v0q0 -29 1.5 -51.5t8.5 -42.5q14 -40 39 -65.5t59.5 -37t76.5 -11.5t77.5 10t61.5 35q15 10 36 44.5t23 118.5v0h95q-1 -68 -22 -121q-23 -57 -62.5 -96t-92.5 -59q-55 -20 -113.5 -20t-112.5 20q-51 19 -90.5 58.5t-61 93.5 t-21.5 124zM317 545h-98v120h-69v77h244v-77h-77v-120zM795 545h-95v120h-82v77h245v-77h-68v-120z"/>
    <glyph glyph-name="text-underline" unicode="&#xe954;" d="M100 845h277v-88h-87v-360q-1 -32 1 -58t10 -48q16 -46 44 -74.5t67.5 -42t87 -13.5t88 12t69.5 39q17 12 40.5 51t25.5 134v360h-92v88h276v-88h-76v-349q0 -83 -25.5 -148t-70.5 -109t-104 -66q-63 -23 -130 -23t-125.5 22.5t-103.5 65.5q-45 46 -68 106 q-25 62 -25 143v358h-79v88zM946 -2v-75h-895v75h895z"/>
    <glyph glyph-name="trash" unicode="&#xe955;" d="M891 712h-274v27q-6 46 -38.5 75.5t-79 29.5t-79.5 -29.5t-38 -75.5v-27h-280v-66h71l56 -662q2 -27 20.5 -43.5t44.5 -17.5h405q27 1 45 17.5t21 43.5l55 662h71v66zM699 -11h-405l-54 657h514zM445 728q3 20 17.5 32t34.5 12t34 -12t18 -32v-19h-107zM365 515h66v-395 h-66v395zM563 515h65v-395h-65v395z"/>
    <glyph glyph-name="upload" unicode="&#xe956;" d="M460 720l-105 -105l-46 46l184 184l184 -184l-46 -46l-106 106v-473h-65v472zM817 508q25 2 43.5 -13t21.5 -40v-478q-3 -25 -21.5 -40t-43.5 -13h-650q-25 -2 -43 13t-22 40v478q4 25 22 40t43 13h228v-65h-228v-455h650v455h-227v65h227z"/>
    <glyph glyph-name="user" unicode="&#xe957;" d="M512 845q196 -5 326 -135t135 -326q-5 -196 -135 -326t-326 -135q-196 5 -326 135t-135 326q5 196 135 326t326 135zM303 94q-9 -17 -15 -35q50 -34 107 -52t117 -18t116.5 17.5t106.5 50.5q-6 16 -13 31q-30 60 -85.5 95t-122.5 36t-123 -32t-88 -93zM787 102h3 q87 87 111 202.5t-21 229.5q-47 113 -145 178.5t-220 67.5q-123 -2 -221 -67.5t-145 -178.5q-45 -114 -21 -229.5t111 -202.5q4 13 10 24q41 74 112 115.5t155.5 40t154 -44.5t109.5 -118q6 -9 7 -17zM347 483q2 -70 48.5 -116.5t116.5 -48.5q70 2 116.5 48.5t48.5 116.5 q-2 70 -48.5 116.5t-116.5 47.5q-70 -1 -116.5 -47.5t-48.5 -116.5zM512 384q-27 0 -50 12.5t-37 36t-14 50t14 50t37 36.5t50 12q41 -1 68.5 -29t27.5 -69.5t-27.5 -69t-68.5 -29.5z"/>
    <glyph glyph-name="video" unicode="&#xe958;" d="M968 562q-9 23 -32.5 33t-46.5 0l-162 -61v65q0 38 -27 65t-65 27h-492q-38 0 -64.5 -27t-27.5 -65v-430q1 -39 27 -65t65 -27h492q39 1 65 27t27 65v68l161 -62q11 -4 23 -4q26 0 43.5 17.5t18.5 43.5v307q0 12 -5 23zM666 169q-1 -13 -9.5 -22t-21.5 -9h-492 q-13 1 -21.5 9.5t-8.5 21.5v430q0 13 9 22t21 9h492q13 0 21.5 -9t9.5 -22v-430zM911 230l-184 74v161l184 74v-309z"/>
    <glyph glyph-name="volume-minus" unicode="&#xe959;" d="M287 630q-38 -1 -60 -23t-22 -59v-328q0 -37 22 -59t60 -23h164l245 -164v820l-245 -164h-164zM614 638v-508l-139 90h-188v328h188zM778 466q38 -1 60 -23t22 -59t-22 -59t-60 -23v164z"/>
    <glyph glyph-name="volume-off" unicode="&#xe95a;" d="M502 630h-164q-37 -1 -59 -23t-23 -59v-328q1 -37 23 -59t59 -23h164l246 -164v820zM666 130l-140 90h-188v328h188l140 90v-508z"/>
    <glyph glyph-name="volume-plus" unicode="&#xe95b;" d="M171 606q-31 -1 -49.5 -19t-19.5 -49v-273q1 -32 19.5 -50t49.5 -19h136l205 -136v682l-205 -136h-136zM444 613v-430l-116 82h-157v273h157zM649 401q-1 -31 -19.5 -49.5t-49.5 -18.5v136q31 0 49.5 -18.5t19.5 -49.5zM785 401q-2 -89 -59 -146t-146 -59v69 q58 1 96.5 39.5t40.5 96.5q-2 58 -40.5 96.5t-96.5 40.5v68q89 -2 146 -59t59 -146zM580 742q147 -3 242.5 -98.5t99.5 -242.5q-4 -147 -99.5 -242.5t-242.5 -98.5v68q116 3 193 80t80 193q-3 116 -80 193t-193 80v68z"/>
    <glyph glyph-name="analytics" unicode="&#xe95c;" d="M973 641l-55 204l-208 -56l18 -70l86 23l-288 -492l-218 255l-257 -513l64 -33l209 416l214 -249l342 585l24 -89z"/>
    <glyph glyph-name="star-2" unicode="&#xe95d;" d="M970 497q-5 19 -19.5 32t-34.5 16l-239 35l-105 223q-8 19 -24.5 30.5t-37 11.5t-37 -11.5t-23.5 -30.5l-105 -223l-236 -36q-20 -3 -34.5 -16t-20 -32.5t-1 -38.5t18.5 -34l169 -171l-41 -244q-3 -21 4 -39.5t23 -31t35.5 -13.5t36.5 8l212 116l210 -116q18 -9 37 -7.5 t35 13.5t23.5 30.5t4.5 38.5l-42 245l171 172q15 15 20 34t0 39z"/>
    <glyph glyph-name="check" unicode="&#xe95e;" d="M344 131l-173 161l-69 -74l255 -239l565 704l-78 59z"/>
    <glyph glyph-name="heart-2" unicode="&#xe95f;" d="M513 15l-399 397q-64 70 -63.5 159t65.5 157q69 65 158 66t158 -63l81 -80l79 80q69 64 158 63t157 -66q66 -68 66.5 -157t-63.5 -159z"/>
    <glyph glyph-name="add" unicode="&#xe960;" d="M563 435h359v-102h-359v-359h-102v359h-359v102h359v359h102v-359z"/>
    <glyph glyph-name="subtract-circle" unicode="&#xe961;" d="M512 845q196 -5 326 -135t135 -326q-5 -196 -135 -326t-326 -135q-196 5 -326 135t-135 326q5 196 135 326t326 135zM512 -11q168 4 279.5 115.5t115.5 279.5q-4 168 -115.5 279.5t-279.5 115.5q-168 -4 -279.5 -115.5t-115.5 -279.5q4 -168 115.5 -279.5t279.5 -115.5z M315 417h394v-66h-394v66z"/>
    <glyph glyph-name="subtract" unicode="&#xe962;" d="M102 333v102h820v-102h-820z"/>
    <glyph glyph-name="loading-3" unicode="&#xe963;" d="M835 160q0 -6 5.5 -6t5.5 5.5t-5.5 5.5t-5.5 -5zM711 32q1 -11 11 -11t10 10.5t-10 10.5t-11 -10zM543 -34q0 -8 5 -12.5t12 -4.5t12 4.5t5 12t-5 12t-12 4.5t-12 -4.5t-5 -11.5zM363 -26q0 -9 6.5 -15.5t16 -6.5t16 6.5t6.5 16t-6.5 16t-16 6.5t-16 -6.5t-6.5 -16.5z M203 56q0 -16 14 -24.5t28.5 0t13.5 24.5q0 12 -8 20t-20 8t-19.5 -8t-8.5 -20zM93 196q0 -20 16.5 -30t33.5 0t17 30q-1 14 -10.5 23t-23.5 9t-23 -9t-10 -23zM51 367q1 -17 12 -28t27.5 -11t27.5 11t11 28t-11 28t-27.5 11t-27.5 -11t-12 -28zM85 537q1 -19 13.5 -31.5 t31.5 -12.5t31.5 12.5t12.5 31.5t-12.5 31.5t-31.5 12.5t-31.5 -12.5t-13.5 -31.5zM188 674q0 -21 14.5 -35.5t36 -14.5t35.5 14.5t14 36t-14 35.5t-35.5 14t-36 -14t-14.5 -36zM338 753q1 -24 17 -40t39.5 -16t39.5 16t16 39.5t-16 39.5t-39.5 16t-39.5 -16t-17 -39z M507 758q1 -27 18.5 -44t43.5 -17t43.5 17t17.5 43.5t-17.5 44t-43.5 17.5t-43.5 -17.5t-18.5 -43.5zM662 688q0 -18 9 -33.5t25 -24.5t33.5 -9t33.5 9t24.5 24.5t9.5 33.5q-1 28 -20 47t-47.5 19t-47.5 -19t-20 -47zM772 557q0 -20 9.5 -37t27 -27.5t37 -10.5t36.5 10.5 t26.5 27.5t9.5 37q-2 30 -22.5 50t-50.5 20t-50.5 -20t-22.5 -50zM816 388q1 -34 23 -56t55.5 -22t55.5 22t22 55.5t-22 55.5t-55.5 22t-55.5 -22t-23 -55z"/>
    <glyph glyph-name="alert-circle" unicode="&#xe964;" d="M512 845q-196 -5 -326 -135t-135 -326q5 -196 135 -326t326 -135q196 5 326 135t135 326q-5 196 -135 326t-326 135zM512 -11q-168 4 -279.5 115.5t-115.5 279.5q4 168 115.5 279.5t279.5 115.5q168 -4 279.5 -115.5t115.5 -279.5q-4 -168 -115.5 -279.5t-279.5 -115.5z M462 214q1 -19 14 -32t32.5 -12.5t32.5 14t13 33t-14.5 33t-34 12.5t-31.5 -14.5t-12 -33.5zM471 620v-308h72v308h-72z"/>
    <glyph glyph-name="loading-2" unicode="&#xe966;" d="M512 845q13 0 21 -8t8 -21v-121q0 -13 -8 -21t-21 -8t-21 8t-8 21v121q0 13 8 21t21 8zM512 102q13 0 21 -8t8 -21v-121q0 -13 -8 -21t-21 -8t-21 8t-8 21v121q0 13 8 21t21 8zM973 384q0 -13 -8 -21t-21 -8h-121q-13 0 -21 8t-8 21t8 21t21 8h121q13 0 21 -8t8 -21z M230 384q0 -13 -8 -21t-21 -8h-121q-13 0 -21 8t-8 21t8 21t21 8h121q13 0 21 -8t8 -21zM909 614q6 -11 3 -22t-14 -18l-104 -63q-11 -6 -22.5 -2.5t-17.5 14t-2.5 22t13.5 18.5l104 63q13 5 24.5 3t15.5 -15zM270 246q6 -11 2.5 -22.5t-13.5 -18.5l-104 -63 q-11 -5 -22.5 -2t-17.5 14t-3 22t14 18l104 63q9 4 20 1t20 -12zM742 781q9 -4 12.5 -15.5t-0.5 -24.5l-63 -104q-5 -8 -16 -11.5t-25 0.5q-9 5 -12 16t1 24l63 104q9 13 20 16.5t20 -5.5zM374 142q9 -5 12 -16t-1 -24l-63 -104q-7 -11 -18 -14t-22 3q-9 4 -12.5 15.5 t0.5 24.5l63 104q5 12 16 14t25 -3zM282 781q9 9 20 6.5t20 -11.5l63 -104q6 -11 2.5 -22.5t-13.5 -17.5q-14 -9 -25 -6.5t-16 11.5l-63 110q-4 9 -0.5 19.5t12.5 14.5zM650 142q11 6 22.5 2.5t18.5 -13.5l63 -104q5 -11 2 -22.5t-14 -17.5t-22 -3t-18 14l-63 104 q-4 13 -1 24t12 16zM115 614q4 9 15.5 12.5t24.5 -0.5l104 -63q8 -5 11.5 -15.5t-0.5 -19.5q-9 -13 -20 -16.5t-20 4.5l-104 58q-13 9 -16.5 20t5.5 20zM754 246q5 9 16 12t24 -1l104 -63q9 -5 12.5 -16t-1.5 -24q-4 -9 -15.5 -12.5t-24.5 0.5l-104 63q-8 5 -11.5 16t0.5 25 z"/>
    <glyph glyph-name="loading" unicode="&#xe967;" d="M518 793q-15 3 -25.5 -9.5t-4 -27t22.5 -16.5h1q72 0 136.5 -27t115.5 -77.5t77.5 -115.5t26.5 -136q-4 -152 -104 -252t-252 -103q-152 3 -252 103t-104 252v0q0 12 -7.5 19.5t-19 7.5t-19 -7.5t-8.5 -19.5v0q5 -174 120.5 -289.5t289.5 -120.5q174 5 289.5 120.5 t120.5 289.5q-5 172 -118.5 287t-285.5 122z"/>
  </font>
</defs>
</svg>
