<?xml version="1.0" standalone="no"?>
<svg class="icon" viewBox="0 0 1024 1024" xmlns="http://www.w3.org/2000/svg">
    <path transform="translate(0, -128) rotate(180, 512 512)" glyph-name="alert-circle" unicode="&#xe964;" d="M512 845q-196 -5 -326 -135t-135 -326q5 -196 135 -326t326 -135q196 5 326 135t135 326q-5 196 -135 326t-326 135zM512 -11q-168 4 -279.5 115.5t-115.5 279.5q4 168 115.5 279.5t279.5 115.5q168 -4 279.5 -115.5t115.5 -279.5q-4 -168 -115.5 -279.5t-279.5 -115.5z M462 214q1 -19 14 -32t32.5 -12.5t32.5 14t13 33t-14.5 33t-34 12.5t-31.5 -14.5t-12 -33.5zM471 620v-308h72v308h-72z"/>
</svg>