<?xml version="1.0" standalone="no"?>
<svg class="icon" viewBox="0 0 1024 1024" xmlns="http://www.w3.org/2000/svg">
    <path transform="translate(0, -128) rotate(180, 512 512)" glyph-name="bookmark" unicode="&#xe90c;" d="M758 -60q-9 0 -18.5 3.5t-18.5 8.5l-215 166l-203 -166q-20 -14 -45.5 -13t-40.5 19q-5 9 -8.5 18.5t-3.5 18.5v737q0 28 16.5 44.5t44.5 17.5h492q28 -1 44.5 -17.5t16.5 -44.5v-731q0 -28 -16.5 -44.5t-44.5 -16.5zM506 198l252 -197v731h-492v-731zM696 542 q-14 0 -22 8t-8 22t8 22.5t22 8.5t22.5 -8.5t8.5 -22.5t-8.5 -22t-22.5 -8zM573 542q-14 0 -22 8t-8 22t8 22.5t22 8.5t22.5 -8.5t8.5 -22.5t-8.5 -22t-22.5 -8zM451 542q-14 0 -22.5 8t-8.5 22t8.5 22.5t22.5 8.5t22 -8.5t8 -22.5t-8 -22t-22 -8zM328 542q-14 0 -22.5 8 t-8.5 22t8.5 22.5t22.5 8.5t22 -8.5t8 -22.5t-8 -22t-22 -8z"/>
</svg>