<?xml version="1.0" standalone="no"?>
<svg class="icon" viewBox="0 0 1024 1024" xmlns="http://www.w3.org/2000/svg">
    <path transform="translate(0, -128) rotate(180, 512 512)" glyph-name="camera" unicode="&#xe90f;" d="M886 13h-754q-34 1 -57 24t-24 56v458q1 33 24 56t57 24h160l19 56q5 28 25.5 41.5t48.5 13.5h248q28 0 49 -15.5t31 -39.5l19 -56h160q34 -1 57 -24t24 -56v-458q-6 -33 -30 -56t-57 -24zM132 575q-10 0 -17.5 -7.5t-7.5 -16.5v-458q0 -10 7.5 -17t17.5 -8h754 q10 1 17.5 8t7.5 17v458q0 9 -7.5 16.5t-17.5 7.5h-198l-31 93q-7 19 -24 19h-248q-9 0 -16.5 -5t-8.5 -14l-30 -93h-198zM509 167q-76 2 -126.5 52.5t-52.5 127.5q1 76 52 126.5t127 52.5q76 -2 126.5 -52.5t52.5 -126.5q-2 -77 -52.5 -127.5t-126.5 -52.5zM509 476 q-53 -1 -90.5 -37t-39.5 -92q1 -53 37 -91t93 -39q53 1 90.5 37t39.5 93q-2 52 -39.5 90t-90.5 39z"/>
</svg>