<?xml version="1.0" standalone="no"?>
<svg class="icon" viewBox="0 0 1024 1024" xmlns="http://www.w3.org/2000/svg">
    <path transform="translate(0, -128) rotate(180, 512 512)" glyph-name="check-circle" unicode="&#xe910;" d="M512 845q-196 -5 -326 -135t-135 -326q5 -196 135 -326t326 -135q196 5 326 135t135 326q-5 196 -135 326t-326 135zM512 -11q-168 4 -279.5 115.5t-115.5 279.5q4 168 115.5 279.5t279.5 115.5q168 -4 279.5 -115.5t115.5 -279.5q-4 -168 -115.5 -279.5t-279.5 -115.5z M436 300l-66 62l-45 -48l117 -110l260 324l-51 41z"/>
</svg>