<?xml version="1.0" standalone="no"?>
<svg class="icon" viewBox="0 0 1024 1024" xmlns="http://www.w3.org/2000/svg">
    <path transform="translate(0, -128) rotate(180, 512 512)" glyph-name="clock" unicode="&#xe915;" d="M512 845q196 -5 326 -135t135 -326q-5 -196 -135 -326t-326 -135q-196 5 -326 135t-135 326q5 196 135 326t326 135zM117 384q1 -107 53 -197.5t145 -144t197 -53.5t197 53.5t145 144t53 197.5q-4 168 -115.5 279.5t-279.5 115.5q-168 -4 -279.5 -115.5t-115.5 -279.5z M315 351v66h230v-66h-230zM479 713h66v-296h-66v296z"/>
</svg>