<?xml version="1.0" standalone="no"?>
<svg class="icon" viewBox="0 0 1024 1024" xmlns="http://www.w3.org/2000/svg">
    <path transform="translate(0, -128) rotate(180, 512 512)" glyph-name="download-cloud" unicode="&#xe919;" d="M391 145l101 -101v456h63v-458l102 103l45 -45l-178 -177l-178 177zM845 571v3q65 -30 96.5 -91t17.5 -132q-17 -70 -70.5 -112t-125.5 -42h-160v63h159q50 0 86.5 31t45 80t-16 90t-72.5 58q-18 7 -20 26q-13 101 -84 166t-173 69q-102 -1 -175 -64t-88 -163 q-2 -11 -9.5 -18.5t-18.5 -8.5q-57 -4 -92.5 -43.5t-34.5 -96.5q4 -56 43.5 -92t95.5 -34h194v-63h-194q-77 1 -131.5 49.5t-64.5 124.5q-7 77 35.5 136t117.5 77q25 117 113 188.5t208 72.5h4q120 -5 206.5 -80t107.5 -194z"/>
</svg>