<?xml version="1.0" standalone="no"?>
<svg class="icon" viewBox="0 0 1024 1024" xmlns="http://www.w3.org/2000/svg">
    <path transform="translate(0, -128) rotate(180, 512 512)" glyph-name="eye" unicode="&#xe91e;" d="M791 576q-122 115 -279 115t-279 -115l-182 -182l182 -182q122 -115 279 -115t279 115l182 182zM745 259q-47 -47 -107 -71.5t-126 -24.5t-126 24.5t-107 71.5l-135 135l135 132q47 46 107 71t126 25t126 -25t107 -71l135 -132zM512 526q-56 -2 -93 -39t-39 -93 q2 -56 39 -93t93 -39q56 2 93 39t39 93q-2 56 -39 93t-93 39zM512 328q-18 0 -33.5 8.5t-25 24t-9.5 33.5t9.5 33.5t25 24t33.5 8.5q27 -2 45 -20.5t18 -45.5t-18 -45.5t-45 -20.5z"/>
</svg>