<?xml version="1.0" standalone="no"?>
<svg class="icon" viewBox="0 0 1024 1024" xmlns="http://www.w3.org/2000/svg">
    <path transform="translate(0, -128) rotate(180, 512 512)" glyph-name="file-png" unicode="&#xe925;" d="M699 845h-597v-922h799v720zM717 740l79 -80h-79v80zM840 -15h-676v798h491v-184h185v-614zM339 476q33 -1 52 -24t19 -65t-18.5 -65.5t-51.5 -23.5q-39 1 -54 31h-1v-86h-47v231h46v-30h1q7 15 21 23.5t33 8.5zM323 336q18 0 28 13.5t10 37t-10 37t-27.5 13.5t-28 -13.5 t-10.5 -37t10.5 -37t27.5 -13.5zM434 300h48v99q0 17 9 27.5t25 10.5q32 -1 32 -36v-101h47v111q0 31 -15.5 48t-44.5 17q-40 0 -54 -34h-1v32h-46v-174zM705 338q18 0 28.5 13t10.5 36t-10.5 36.5t-28 13.5t-27.5 -13t-10 -36.5t10 -36.5t27 -13zM705 235q-35 0 -56 14.5 t-25 38.5h47q3 -9 12 -14.5t23 -5.5q18 0 28 9t10 24v31h-1q-6 -14 -20.5 -22.5t-33.5 -8.5q-32 1 -51 23.5t-19 63.5t19 64t52 24q19 0 33 -9t21 -23h1v30h46v-171q0 -32 -23.5 -50t-62.5 -18z"/>
</svg>