<?xml version="1.0" standalone="no"?>
<svg class="icon" viewBox="0 0 1024 1024" xmlns="http://www.w3.org/2000/svg">
    <path transform="translate(0, -128) rotate(180, 512 512)" glyph-name="file-svg" unicode="&#xe926;" d="M699 845h-597v-922h799v720zM717 740l79 -80h-79v80zM840 -15h-676v798h491v-184h185v-614zM230 418q0 -41 53 -53l34 -8q24 -5 23 -18q-1 -18 -31.5 -18t-34.5 23h-49q2 -27 23.5 -43t59 -16t60 16t22.5 44q0 20 -12 32t-40 18l-35 7q-25 6 -25 19q1 9 8.5 14.5 t20.5 5.5q29 -1 32 -24h46q-1 27 -21.5 43t-56 16t-56.5 -15.5t-21 -42.5zM584 473h-52l-39 -141h-1l-38 141h-54l64 -185h57zM687 328q19 0 30 14t11 38.5t-11 39t-30 14.5t-29.5 -14t-10.5 -39t10.5 -39t29.5 -14zM686 218q-37 1 -59.5 16.5t-25.5 40.5h49q3 -10 13 -16 t25 -6q19 0 29.5 10t10.5 26v32h-1q-6 -14 -21.5 -23t-35.5 -9q-34 0 -54.5 24.5t-20.5 68t20.5 68.5t55.5 25q20 0 35 -9t22 -25h1v32h50v-183q-1 -33 -26 -52.5t-67 -19.5z"/>
</svg>