<?xml version="1.0" standalone="no"?>
<svg class="icon" viewBox="0 0 1024 1024" xmlns="http://www.w3.org/2000/svg">
    <path transform="translate(0, -128) rotate(180, 512 512)" glyph-name="file-jpg" unicode="&#xe923;" d="M699 845h-597v-922h799v720zM717 740l79 -80h-79v80zM840 -15h-676v798h491v-184h185v-614zM340 431h-53v-200q1 -23 -24 -22h-7v-39h14q69 0 70 59v202zM313 453q12 -1 20 7t8 19.5t-8 19.5t-19.5 8t-20 -8t-8.5 -19.5t8 -19t20 -7.5zM487 434q37 -1 58 -27t21 -72.5 t-20.5 -72.5t-57.5 -26q-43 1 -60 35h-1v-96h-53v256h52v-33h1q8 17 24 26t36 10zM470 278q19 1 30.5 16t11.5 41t-11.5 41t-31 15t-31 -15t-11.5 -41t11.5 -41t31.5 -16zM682 280q20 0 31.5 14.5t11.5 40.5t-11.5 41t-31 15t-31 -15t-11.5 -41t11 -40.5t31 -14.5zM681 166 q-38 0 -61.5 16t-27.5 43h52q3 -11 13.5 -17t25.5 -6q20 0 31 10.5t11 27.5v33h-1q-7 -15 -22.5 -24t-37.5 -9q-35 0 -56 25t-21.5 70.5t20.5 71.5t58 27q21 -1 36.5 -10.5t23.5 -25.5h1v33h52v-190q-1 -35 -27 -55t-70 -20z"/>
</svg>