<?xml version="1.0" standalone="no"?>
<svg class="icon" viewBox="0 0 1024 1024" xmlns="http://www.w3.org/2000/svg">
    <path transform="translate(0, -128) rotate(180, 512 512)" glyph-name="filter" unicode="&#xe928;" d="M874 596q41 1 69.5 29.5t29.5 69.5q-1 41 -29.5 69t-69.5 30q-35 -1 -58.5 -18.5t-33.5 -47.5h-731v-66h731q10 -30 33.5 -47.5t58.5 -18.5zM874 728q15 0 24 -9t9 -24t-9 -24t-24 -9t-24 9t-9 24t9 24t24 9zM150 135q35 0 58.5 -17.5t33.5 -48.5h731v-65h-731 q-10 -30 -33.5 -48t-58.5 -18q-41 1 -69.5 29.5t-29.5 69.5q1 40 29.5 68.5t69.5 29.5zM512 464q35 0 58.5 -17.5t33.5 -47.5h369v-66h-369q-11 -30 -36.5 -48t-55.5 -18t-55.5 18t-36.5 48h-369v66h369q10 30 33.5 47.5t58.5 17.5zM512 333q15 0 24 9t9 24t-9 23.5t-24 8.5 t-24 -8.5t-9 -23.5t9 -24t24 -9z"/>
</svg>