<?xml version="1.0" standalone="no"?>
<svg class="icon" viewBox="0 0 1024 1024" xmlns="http://www.w3.org/2000/svg">
    <path transform="translate(0, -128) rotate(180, 512 512)" glyph-name="heart" unicode="&#xe92b;" d="M513 15l-399 397q-64 70 -63.5 159t65.5 157q69 65 158 66t158 -63l81 -80l79 80q69 64 158 63t157 -66q66 -68 66.5 -157t-63.5 -159zM274 731q-32 0 -61 -11.5t-52 -34.5q-46 -49 -46 -112.5t46 -112.5l352 -352l351 351q30 31 41 71.5t0 82.5t-41 72t-72 41.5 t-82.5 0.5t-71.5 -42l-125 -127l-127 127q-22 23 -51.5 34.5t-60.5 11.5z"/>
</svg>