<?xml version="1.0" standalone="no"?>
<svg class="icon" viewBox="0 0 1024 1024" xmlns="http://www.w3.org/2000/svg">
    <path transform="translate(0, -128) rotate(180, 512 512)" glyph-name="help" unicode="&#xe92c;" d="M512 845q-196 -5 -326 -135t-135 -326q5 -196 135 -326t326 -135q196 5 326 135t135 326q-5 196 -135 326t-326 135zM512 -11q-168 4 -279.5 115.5t-115.5 279.5q4 168 115.5 279.5t279.5 115.5q168 -4 279.5 -115.5t115.5 -279.5q-4 -168 -115.5 -279.5t-279.5 -115.5z M512 614q-26 3 -50.5 -5.5t-43.5 -26.5t-29 -42t-9 -51h60q-1 30 20.5 51t51.5 19q27 0 46 -14t20 -45q0 -23 -13 -37t-35 -29q-27 -16 -42.5 -41.5t-16.5 -56.5v-23h60v18q0 25 11.5 39.5t37.5 33.5q29 16 45.5 42t18.5 58q-1 25 -11.5 47t-30 38t-42.5 22.5t-48 2.5z M462 215q1 -20 14 -33t32.5 -12.5t32.5 14t13 33t-14.5 33t-34 12.5t-31.5 -14.5t-12 -33.5v1z"/>
</svg>