<?xml version="1.0" standalone="no"?>
<svg class="icon" viewBox="0 0 1024 1024" xmlns="http://www.w3.org/2000/svg">
    <path transform="translate(0, -128) rotate(180, 512 512)" glyph-name="iphone" unicode="&#xe930;" d="M764 845h-460q-42 -1 -70 -29t-29 -70v-724q1 -42 29 -70t70 -29h460q42 1 70 29t29 70v724q-1 42 -29 70t-70 29zM797 22q0 -14 -9.5 -23.5t-23.5 -9.5h-460q-14 0 -23.5 9.5t-9.5 23.5v724q0 14 9.5 23.5t23.5 9.5h460q14 0 23.5 -9.5t9.5 -23.5v-724zM534 187 q-28 -1 -46.5 -19.5t-18.5 -46.5t18.5 -46.5t46.5 -18.5t46.5 18.5t18.5 46.5t-18.5 46.5t-46.5 19.5z"/>
</svg>