<?xml version="1.0" standalone="no"?>
<svg class="icon" viewBox="0 0 1024 1024" xmlns="http://www.w3.org/2000/svg">
    <path transform="translate(0, -128) rotate(180, 512 512)" glyph-name="loading-3" unicode="&#xe963;" d="M835 160q0 -6 5.5 -6t5.5 5.5t-5.5 5.5t-5.5 -5zM711 32q1 -11 11 -11t10 10.5t-10 10.5t-11 -10zM543 -34q0 -8 5 -12.5t12 -4.5t12 4.5t5 12t-5 12t-12 4.5t-12 -4.5t-5 -11.5zM363 -26q0 -9 6.5 -15.5t16 -6.5t16 6.5t6.5 16t-6.5 16t-16 6.5t-16 -6.5t-6.5 -16.5z M203 56q0 -16 14 -24.5t28.5 0t13.5 24.5q0 12 -8 20t-20 8t-19.5 -8t-8.5 -20zM93 196q0 -20 16.5 -30t33.5 0t17 30q-1 14 -10.5 23t-23.5 9t-23 -9t-10 -23zM51 367q1 -17 12 -28t27.5 -11t27.5 11t11 28t-11 28t-27.5 11t-27.5 -11t-12 -28zM85 537q1 -19 13.5 -31.5 t31.5 -12.5t31.5 12.5t12.5 31.5t-12.5 31.5t-31.5 12.5t-31.5 -12.5t-13.5 -31.5zM188 674q0 -21 14.5 -35.5t36 -14.5t35.5 14.5t14 36t-14 35.5t-35.5 14t-36 -14t-14.5 -36zM338 753q1 -24 17 -40t39.5 -16t39.5 16t16 39.5t-16 39.5t-39.5 16t-39.5 -16t-17 -39z M507 758q1 -27 18.5 -44t43.5 -17t43.5 17t17.5 43.5t-17.5 44t-43.5 17.5t-43.5 -17.5t-18.5 -43.5zM662 688q0 -18 9 -33.5t25 -24.5t33.5 -9t33.5 9t24.5 24.5t9.5 33.5q-1 28 -20 47t-47.5 19t-47.5 -19t-20 -47zM772 557q0 -20 9.5 -37t27 -27.5t37 -10.5t36.5 10.5 t26.5 27.5t9.5 37q-2 30 -22.5 50t-50.5 20t-50.5 -20t-22.5 -50zM816 388q1 -34 23 -56t55.5 -22t55.5 22t22 55.5t-22 55.5t-55.5 22t-55.5 -22t-23 -55z"/>
</svg>