<?xml version="1.0" standalone="no"?>
<svg class="icon" viewBox="0 0 1024 1024" xmlns="http://www.w3.org/2000/svg">
    <path transform="translate(0, -128) rotate(180, 512 512)" glyph-name="loading-2" unicode="&#xe966;" d="M512 845q13 0 21 -8t8 -21v-121q0 -13 -8 -21t-21 -8t-21 8t-8 21v121q0 13 8 21t21 8zM512 102q13 0 21 -8t8 -21v-121q0 -13 -8 -21t-21 -8t-21 8t-8 21v121q0 13 8 21t21 8zM973 384q0 -13 -8 -21t-21 -8h-121q-13 0 -21 8t-8 21t8 21t21 8h121q13 0 21 -8t8 -21z M230 384q0 -13 -8 -21t-21 -8h-121q-13 0 -21 8t-8 21t8 21t21 8h121q13 0 21 -8t8 -21zM909 614q6 -11 3 -22t-14 -18l-104 -63q-11 -6 -22.5 -2.5t-17.5 14t-2.5 22t13.5 18.5l104 63q13 5 24.5 3t15.5 -15zM270 246q6 -11 2.5 -22.5t-13.5 -18.5l-104 -63 q-11 -5 -22.5 -2t-17.5 14t-3 22t14 18l104 63q9 4 20 1t20 -12zM742 781q9 -4 12.5 -15.5t-0.5 -24.5l-63 -104q-5 -8 -16 -11.5t-25 0.5q-9 5 -12 16t1 24l63 104q9 13 20 16.5t20 -5.5zM374 142q9 -5 12 -16t-1 -24l-63 -104q-7 -11 -18 -14t-22 3q-9 4 -12.5 15.5 t0.5 24.5l63 104q5 12 16 14t25 -3zM282 781q9 9 20 6.5t20 -11.5l63 -104q6 -11 2.5 -22.5t-13.5 -17.5q-14 -9 -25 -6.5t-16 11.5l-63 110q-4 9 -0.5 19.5t12.5 14.5zM650 142q11 6 22.5 2.5t18.5 -13.5l63 -104q5 -11 2 -22.5t-14 -17.5t-22 -3t-18 14l-63 104 q-4 13 -1 24t12 16zM115 614q4 9 15.5 12.5t24.5 -0.5l104 -63q8 -5 11.5 -15.5t-0.5 -19.5q-9 -13 -20 -16.5t-20 4.5l-104 58q-13 9 -16.5 20t5.5 20zM754 246q5 9 16 12t24 -1l104 -63q9 -5 12.5 -16t-1.5 -24q-4 -9 -15.5 -12.5t-24.5 0.5l-104 63q-8 5 -11.5 16t0.5 25 z"/>
</svg>