<?xml version="1.0" standalone="no"?>
<svg class="icon" viewBox="0 0 1024 1024" xmlns="http://www.w3.org/2000/svg">
    <path transform="translate(0, -128) rotate(180, 512 512)" glyph-name="lock" unicode="&#xe934;" d="M794 581h-33q-3 112 -77.5 186.5t-186.5 77.5q-112 -3 -186 -77.5t-77 -186.5h-33q-42 -1 -69.5 -28.5t-29.5 -69.5v-461q1 -42 29 -70t70 -29h593q40 1 69 29.5t29 69.5v461q-1 42 -28.5 69.5t-69.5 28.5zM497 779q84 -2 140 -58t58 -140h-395q0 40 15 76t43 64t64 43 t75 15zM827 22q-1 -14 -10.5 -23.5t-22.5 -9.5h-593q-13 0 -23 9.5t-10 23.5v461q1 14 10 23t23 10h593q14 -1 23 -10t10 -23v-461zM530 308v109h-66v-109q-14 -9 -22.5 -23.5t-8.5 -32t8.5 -32t22.5 -24.5v-108h66v108q15 10 23 24.5t8 32t-8 32t-23 23.5z"/>
</svg>