<?xml version="1.0" standalone="no"?>
<svg class="icon" viewBox="0 0 1024 1024" xmlns="http://www.w3.org/2000/svg">
    <path transform="translate(0, -128) rotate(180, 512 512)" glyph-name="map-pin" unicode="&#xe936;" d="M771 751q-48 46 -109 70.5t-128 23.5q-67 1 -129 -23t-110 -71q-47 -50 -70 -113.5t-20 -131.5q1 -122 78.5 -262t227.5 -297l23 -24l24 24q303 314 306 559q3 69 -21 132t-72 113zM535 18q-130 140 -196.5 262.5t-67.5 227.5q-3 55 15 106t56 91q39 38 88.5 57t104.5 17 q54 1 103.5 -18t88.5 -57q38 -40 56.5 -91t16.5 -106q-2 -104 -68.5 -226.5t-196.5 -262.5zM535 647q-56 -1 -93.5 -38.5t-38.5 -92.5q1 -56 38.5 -93.5t93.5 -38.5q55 1 92.5 38.5t38.5 93.5q-1 55 -38.5 92.5t-92.5 38.5zM535 460q-25 0 -40.5 16t-15.5 40t15.5 40t40 16 t40.5 -16t16 -40t-16 -40t-40 -16z"/>
</svg>