<?xml version="1.0" standalone="no"?>
<svg class="icon" viewBox="0 0 1024 1024" xmlns="http://www.w3.org/2000/svg">
    <path transform="translate(0, -128) rotate(180, 512 512)" glyph-name="money" unicode="&#xe939;" d="M915 598h58v-547q-1 -24 -17 -40.5t-41 -16.5h-691v57h691v547zM858 166q-1 -24 -17.5 -40.5t-40.5 -16.5h-691q-25 0 -41 16.5t-17 40.5v519q1 24 17 40.5t41 16.5h691q24 0 40.5 -16.5t17.5 -40.5v-519zM109 685v-519h691v519h-691zM454 272q-65 1 -108.5 44.5 t-44.5 109.5q1 65 44.5 108.5t108.5 44.5q66 -1 109.5 -44.5t44.5 -108.5q-2 -66 -45 -109t-109 -45zM454 522q-26 0 -48.5 -12.5t-36 -35.5t-13.5 -48.5t13.5 -48.5t36 -35.5t48.5 -12.5q41 2 67 29t26 67.5t-26 67.5t-67 29z"/>
</svg>