<?xml version="1.0" standalone="no"?>
<svg class="icon" viewBox="0 0 1024 1024" xmlns="http://www.w3.org/2000/svg">
    <path transform="translate(0, -128) rotate(180, 512 512)" glyph-name="next" unicode="&#xe93a;" d="M773 685q-41 -2 -69 -30t-29 -68v-189q-5 5 -7 9t-6 4l-404 274q-10 4 -20 5t-19 1q-30 0 -47.5 -17.5t-17.5 -47.5v-541q0 -10 4 -19.5t9 -19.5q10 -10 23.5 -14.5t28.5 -4.5q10 0 19.5 3.5t19.5 9.5l404 267l13 13v-189q1 -41 29 -69t69 -29q40 1 68 29t29 69v456 q-1 40 -29 68t-68 30zM238 652l-19 -26zM219 92v534l404 -267zM805 131q0 -15 -8.5 -24t-23.5 -9t-24 9t-9 24v456q0 15 9 23.5t24 8.5t23.5 -8.5t8.5 -23.5v-456z"/>
</svg>