<?xml version="1.0" standalone="no"?>
<svg class="icon" viewBox="0 0 1024 1024" xmlns="http://www.w3.org/2000/svg">
    <path transform="translate(0, -128) rotate(180, 512 512)" glyph-name="numbered-list" unicode="&#xe93b;" d="M922 370h-685v69h685v-69zM922 96h-685v69h685v-69zM922 644h-685v68h685v-68zM112 699l-8 20q7 3 14.5 7.5t16.5 15.5h33v-102h16v-24h-72v24h18v67zM125 427l-20 21q20 22 47 22q18 0 30 -10.5t13 -28.5q0 -15 -7.5 -23.5t-21.5 -16.5q-7 -5 -15 -12t-12 -12h32v14h30 v-38h-97v26q7 11 12.5 17.5t13.5 12.5q10 8 20.5 15t11 14.5t-4 10t-11 2.5t-12 -4.5t-9.5 -9.5zM124 161l-18 21q5 6 15.5 11.5t23.5 5.5q22 0 33.5 -10.5t11.5 -27.5q0 -9 -4.5 -14.5t-8.5 -8.5q5 -3 10.5 -10t6.5 -19q-1 -20 -16 -29.5t-34 -9.5q-13 0 -24.5 6t-17.5 14 l19 19q9 -11 24 -11.5t15 13.5t-14 13h-14v21h13q14 0 15 13q0 7 -4.5 10.5t-10.5 3.5q-11 -1 -21 -11z"/>
</svg>