<?xml version="1.0" standalone="no"?>
<svg class="icon" viewBox="0 0 1024 1024" xmlns="http://www.w3.org/2000/svg">
    <path transform="translate(0, -128) rotate(180, 512 512)" glyph-name="phone" unicode="&#xe93d;" d="M853 264q-59 7 -115 29q-23 8 -46.5 3t-41.5 -22l-52 -52q-77 44 -139.5 106.5t-107.5 140.5l53 52q16 17 21 40t-3 46q-23 57 -32 118q-6 31 -29 49.5t-54 19.5h-122q-36 -1 -62 -27q-11 -13 -16.5 -29.5t-3.5 -33.5q10 -96 42 -186t84 -170q48 -75 110 -137.5 t137 -109.5q81 -52 171 -84t185 -43h7q32 1 56 22q26 25 26 61v122q1 32 -18 55.5t-50 29.5zM853 59q0 -6 -4.5 -10t-10.5 -4q-87 9 -169.5 37.5t-156.5 75.5q-68 44 -125 101t-101 125q-47 74 -76.5 156.5t-39.5 169.5q-1 5 0 11q6 6 15 4h122q12 0 14 -11q10 -67 33 -131 q4 -7 0 -14l-91 -89l26 -45q49 -86 118.5 -155t154.5 -119l46 -25l89 89q7 5 15 0q63 -24 130 -32q10 -3 11 -14v-120z"/>
</svg>