<?xml version="1.0" standalone="no"?>
<svg class="icon" viewBox="0 0 1024 1024" xmlns="http://www.w3.org/2000/svg">
    <path transform="translate(0, -128) rotate(180, 512 512)" glyph-name="playlist" unicode="&#xe93f;" d="M147 463q-40 -1 -67.5 -28.5t-28.5 -66.5q1 -39 28.5 -66.5t67.5 -28.5q39 1 66.5 28.5t28.5 66.5q-1 39 -28.5 66.5t-66.5 28.5zM147 336q-15 1 -23.5 9.5t-8.5 23t8.5 23t23 8.5t23 -8.5t8.5 -23t-8.5 -23t-22.5 -9.5zM147 146q39 -2 66.5 -29t28.5 -67 q-1 -39 -28.5 -66.5t-66.5 -28.5q-40 1 -67.5 28.5t-28.5 66.5q1 40 28.5 67t67.5 29zM401 718h572v-64h-572v64zM274 82h699v-63h-699v63zM274 400h699v-64h-699v64zM83 845l254 -159l-254 -159v318z"/>
</svg>