<?xml version="1.0" standalone="no"?>
<svg class="icon" viewBox="0 0 1024 1024" xmlns="http://www.w3.org/2000/svg">
    <path transform="translate(0, -128) rotate(180, 512 512)" glyph-name="prev" unicode="&#xe940;" d="M805 691q-10 0 -19.5 -4t-19.5 -9l-404 -267l-13 -13v189q-1 40 -29 68t-69 30q-40 -2 -68 -30t-29 -68v-456q1 -41 29 -69t68 -29q41 1 69 29t29 69v189q5 -5 7 -9t6 -4l404 -267q10 -6 19.5 -9.5t19.5 -3.5h13q15 4 24.5 10t14.5 15.5t9 19.5t4 20v534q0 30 -17.5 47.5 t-47.5 17.5zM284 131q0 -15 -9 -24t-24 -9t-23.5 9t-8.5 24v456q0 15 8.5 23.5t23.5 8.5t24 -8.5t9 -23.5v-456zM805 92l-404 267l404 267v-534z"/>
</svg>