<?xml version="1.0" standalone="no"?>
<svg class="icon" viewBox="0 0 1024 1024" xmlns="http://www.w3.org/2000/svg">
    <path transform="translate(0, -128) rotate(180, 512 512)" glyph-name="reload" unicode="&#xe941;" d="M158 250q-12 -4 -18 -15.5t-2 -24.5q58 -164 202.5 -238.5t308.5 -25.5q162 57 235 202.5t24 311.5q-58 164 -202.5 238.5t-309.5 26.5l-19 -7l31 54q11 18 1 36t-31 17.5t-31 -18.5l-78 -136q-9 -15 -2 -31t24 -21l153 -35q14 -3 26.5 4.5t15.5 22t-4.5 26.5t-21.5 16 l-48 11l4 1q139 41 261 -22t171 -202q42 -141 -19.5 -264t-198.5 -171q-139 -42 -261 21.5t-171 202.5q-4 12 -15.5 18t-24.5 2zM213 568q14 -2 25 6t13 22q2 11 -2 20t-13 14.5t-19.5 5t-18.5 -6.5t-11.5 -15.5t-1 -19.5t9.5 -17t18 -9zM147 449q15 -2 26 6t13 22t-6 25 t-22 13.5t-25 -5.5t-13.5 -22.5t5.5 -25.5t22 -13zM171 341q2 14 -6.5 25.5t-21.5 13.5q-11 2 -20 -2.5t-14.5 -13.5t-5 -19t6.5 -18.5t15.5 -12t19.5 -1t17 10t9 17.5z"/>
</svg>