<?xml version="1.0" standalone="no"?>
<svg class="icon" viewBox="0 0 1024 1024" xmlns="http://www.w3.org/2000/svg">
    <path transform="translate(0, -128) rotate(180, 512 512)" glyph-name="search" unicode="&#xe943;" d="M973 -20l-264 263q92 120 80.5 262.5t-122.5 245.5q-115 98 -257.5 93.5t-251.5 -109.5q-104 -111 -106.5 -253.5t97.5 -256.5q104 -109 246.5 -118.5t261.5 84.5l264 -264zM208 267q-81 94 -78.5 210.5t87.5 206.5q90 85 206.5 87.5t209.5 -78.5q82 -94 79.5 -210.5 t-88.5 -206.5q-89 -85 -206 -87.5t-210 78.5z"/>
</svg>