<?xml version="1.0" standalone="no"?>
<svg class="icon" viewBox="0 0 1024 1024" xmlns="http://www.w3.org/2000/svg">
    <path transform="translate(0, -128) rotate(180, 512 512)" glyph-name="settings" unicode="&#xe944;" d="M885 252q-7 -20 -16 -38l62 -63l-186 -186l-63 62q-18 -9 -38 -16v-88h-264v88q-19 7 -38 16l-63 -62l-186 186l62 63q-9 18 -16 38h-88v264h88q7 19 16 38l-62 63l186 186l63 -62q19 9 38 16v88h264v-88q19 -7 38 -16l63 62l186 -186l-62 -63q9 -19 16 -38h88v-264h-88z M847 151l-51 49l18 38q7 16 13 33l14 39h73v145h-72l-13 40q-6 16 -14 33l-18 37l50 51l-102 102l-51 -50l-37 18q-16 7 -33 13l-40 14v73h-144v-73l-40 -12q-17 -6 -33 -14l-37 -18l-51 50l-101 -102l50 -51l-18 -37q-7 -16 -13 -33l-14 -40h-73v-144h73l12 -40 q6 -17 14 -33l18 -37l-50 -51l102 -101l51 50l37 -18q16 -7 33 -13l40 -14v-73h144v72l40 13q17 6 33 14l37 18l51 -50zM512 516q56 -2 93 -39t39 -93q-2 -56 -39 -93t-93 -39q-56 2 -93 39t-39 93q2 56 39 93t93 39zM512 327q24 1 40 17t16 40t-16 40t-40 16t-40 -16 t-16 -40t16 -40t40 -17z"/>
</svg>