<?xml version="1.0" standalone="no"?>
<svg class="icon" viewBox="0 0 1024 1024" xmlns="http://www.w3.org/2000/svg">
    <path transform="translate(0, -128) rotate(180, 512 512)" glyph-name="share" unicode="&#xe946;" d="M790 232q-29 0 -55.5 -10t-47.5 -29l-288 144q17 48 0 97l288 144q42 -36 94.5 -39t97.5 29.5t58.5 83.5t-9 101.5t-69.5 74.5t-101 12.5t-87.5 -52.5t-33.5 -97q0 -24 8 -48l-288 -144q-49 40 -108 37.5t-104 -46.5q-43 -47 -43 -106.5t43 -105.5q45 -45 104 -47.5 t108 38.5l288 -145q-8 -23 -8 -48q1 -65 44.5 -108t108.5 -45q65 2 108 45t45 108q-2 65 -45 108.5t-108 44.5v3zM790 768q32 -1 53.5 -22.5t21.5 -54t-21.5 -54t-54 -21.5t-54 21.5t-21.5 54t21.5 54t54.5 22.5zM254 309q-32 1 -54 22.5t-22 54t22 54t54.5 21.5t54 -21.5 t21.5 -54t-21.5 -54t-54.5 -22.5zM790 3q-33 1 -54.5 22.5t-21.5 54t21.5 54t54 21.5t54 -21.5t21.5 -54t-21.5 -54t-53.5 -22.5z"/>
</svg>