<?xml version="1.0" standalone="no"?>
<svg class="icon" viewBox="0 0 1024 1024" xmlns="http://www.w3.org/2000/svg">
    <path transform="translate(0, -128) rotate(180, 512 512)" glyph-name="shopping-cart" unicode="&#xe949;" d="M413 141q-26 0 -48.5 -13.5t-35.5 -36.5t-13 -48.5t13.5 -48.5t36 -36t49.5 -13q41 1 68.5 29t27.5 69.5t-28 69t-70 28.5zM413 10q-13 1 -22.5 10t-9.5 23t9.5 23t23 9t23 -9t9.5 -23t-9.5 -23t-23.5 -10zM675 141q41 -1 69 -28.5t28 -69t-27.5 -69.5t-69 -28t-69 27.5 t-28 69t27 69.5t69.5 29zM228 696h745l-58 -338q-4 -24 -22 -39t-43 -15h-549l11 -61h468q14 -1 23.5 -10t9.5 -23t-9.5 -23t-23.5 -10h-522l-102 551h-72q-19 1 -28 17t0 32t28 17h126zM850 369l46 261h-653l46 -261h561z"/>
</svg>