<?xml version="1.0" standalone="no"?>
<svg class="icon" viewBox="0 0 1024 1024" xmlns="http://www.w3.org/2000/svg">
    <path transform="translate(0, -128) rotate(180, 512 512)" glyph-name="sound" unicode="&#xe94c;" d="M973 729q-12 60 -57.5 91.5t-105.5 21.5l-355 -56q-54 -12 -86.5 -50t-33.5 -92v-362h-107q-35 1 -67.5 -12.5t-58 -38.5t-38.5 -57.5t-13 -68.5t13 -68t38.5 -57.5t58 -38.5t68 -13t68 13t57.5 38.5t38.5 57.5t13.5 68v539q1 27 17.5 46t38.5 25l355 56q32 6 55.5 -9 t29.5 -47v-362h-106q-36 0 -68.5 -13t-57.5 -38.5t-38.5 -57.5t-13.5 -68t13.5 -68.5t38.5 -57.5t57.5 -38t68 -13t68 13t58 38t38.5 57.5t13 68.5v553zM335 105q-2 -44 -32.5 -74.5t-74.5 -31.5q-43 1 -74 31.5t-32 74.5q1 44 32 74.5t74 31.5h107v-106zM902 176 q-1 -44 -32 -74.5t-74 -31.5q-44 1 -74.5 31.5t-32.5 74.5q2 44 32.5 74.5t74.5 31.5h106v-106z"/>
</svg>