<?xml version="1.0" standalone="no"?>
<svg class="icon" viewBox="0 0 1024 1024" xmlns="http://www.w3.org/2000/svg">
    <path transform="translate(0, -128) rotate(180, 512 512)" glyph-name="star" unicode="&#xe94d;" d="M970 497q-5 19 -19.5 32t-34.5 16l-239 35l-105 223q-8 19 -24.5 30.5t-37 11.5t-37 -11.5t-23.5 -30.5l-105 -223l-236 -36q-20 -3 -34.5 -16t-20 -32.5t-1 -38.5t18.5 -34l169 -171l-41 -244q-3 -21 4 -39.5t23 -31t35.5 -13.5t36.5 8l212 116l210 -116q18 -9 37 -7.5 t35 13.5t23.5 30.5t4.5 38.5l-42 245l171 172q15 15 20 34t0 39zM727 310q-13 -13 -18.5 -30t-2.5 -35l38 -234l-197 110q-16 8 -33 8t-33 -8l-197 -110l30 232q2 18 -3.5 35t-18.5 30l-162 168l223 34q18 3 32.5 14t22.5 28l103 212l100 -212q7 -17 21.5 -28t33.5 -14 l222 -34z"/>
</svg>