<?xml version="1.0" standalone="no"?>
<svg class="icon" viewBox="0 0 1024 1024" xmlns="http://www.w3.org/2000/svg">
    <path transform="translate(0, -128) rotate(180, 512 512)" glyph-name="streaming" unicode="&#xe94f;" d="M512 458q-38 -1 -64.5 -27.5t-27.5 -64.5q1 -38 27.5 -64.5t64.5 -28.5q38 2 64.5 28.5t27.5 64.5q-1 38 -27.5 64.5t-64.5 27.5zM512 335q-14 0 -22.5 8.5t-8.5 22.5t8.5 22t22.5 8t22.5 -8t8.5 -22t-8.5 -22.5t-22.5 -8.5zM752 605q46 -46 72 -108t26 -131.5t-26 -131 t-72 -108.5l-43 43q37 42 58 91.5t21.5 105t-19 105.5t-60.5 91zM666 519q28 -32 44.5 -72t16.5 -81q0 -46 -14.5 -84t-46.5 -70l-43 43q18 23 30 50.5t12.5 60t-10 60t-32.5 50.5zM838 691q65 -65 99.5 -149t34.5 -176.5t-34.5 -176.5t-99.5 -149l-43 43q56 57 86 130 t30 153q0 83 -30.5 155t-85.5 127zM315 562q-37 -37 -58 -88.5t-21 -107.5t21 -107.5t58 -89.5l-43 -43q-46 51 -72 110.5t-26 129t24 131.5t74 108zM358 519l43 -43q-18 -23 -30 -50.5t-12.5 -60t10 -60t32.5 -50.5l-43 -43q-28 33 -44.5 72.5t-16.5 81.5q0 45 14.5 83 t46.5 70zM229 648q-55 -60 -85.5 -132t-30.5 -151t30.5 -152.5t85.5 -129.5l-43 -43q-65 65 -99.5 149t-34.5 176.5t34.5 176.5t99.5 149z"/>
</svg>