<?xml version="1.0" standalone="no"?>
<svg class="icon" viewBox="0 0 1024 1024" xmlns="http://www.w3.org/2000/svg">
    <path transform="translate(0, -128) rotate(180, 512 512)" glyph-name="tag" unicode="&#xe950;" d="M51 706v-294q0 -27 10.5 -52.5t30.5 -44.5l351 -351q20 -20 45 -30.5t53 -10.5t53 10.5t45 30.5l293 293q20 20 30.5 45t10.5 53t-10.5 53t-30.5 45l-351 351q-19 20 -44.5 30.5t-52.5 10.5h-294q-59 -2 -98 -41t-41 -98zM120 706q1 30 20.5 49.5t49.5 20.5h294 q28 -1 48 -21l351 -351q20 -21 20 -48.5t-20 -49.5l-293 -293q-22 -20 -49.5 -20t-48.5 20l-351 351q-20 20 -21 48v294zM166 592q2 -59 41 -98t98 -41q58 2 97 41t41 98q-2 58 -41 97t-97 41q-59 -2 -98 -41t-41 -97zM235 592q0 19 9 35t25.5 26t35 10t35 -10t25.5 -26 t9 -35q-2 -29 -21.5 -48t-48 -19t-48 19t-21.5 48z"/>
</svg>