<?xml version="1.0" standalone="no"?>
<svg class="icon" viewBox="0 0 1024 1024" xmlns="http://www.w3.org/2000/svg">
    <path transform="translate(0, -128) rotate(180, 512 512)" glyph-name="tags" unicode="&#xe951;" d="M841 187h-482q-44 0 -79 26l-176 132q-25 19 -39 46t-14 59v131q0 32 14 59.5t39 46.5l176 131q35 26 79 27h482q56 -2 93 -39t39 -93v-395q-2 -56 -39 -93t-93 -38zM359 779q-22 0 -40 -13l-176 -132q-12 -9 -19 -23t-7 -30v-131q0 -16 7 -29.5t19 -23.5l176 -131 q18 -13 40 -14h482q28 1 46.5 19.5t19.5 46.5v395q-1 28 -19.5 46.5t-46.5 19.5h-482zM380 384q-56 1 -93 38.5t-38 93.5q1 56 38 93t93 38q56 -1 93.5 -38t38.5 -93q-1 -56 -38.5 -93.5t-93.5 -38.5zM380 581q-18 1 -33.5 -7.5t-24.5 -24.5t-9 -33.5t9 -33t24.5 -24.5 t33.5 -8q28 1 46 19.5t18 46t-18 46t-46 19.5zM816 121h73l-60 -125q-8 -17 -24 -27t-35 -10q-15 0 -29 6l-329 156h155l203 -96z"/>
</svg>