<?xml version="1.0" standalone="no"?>
<svg class="icon" viewBox="0 0 1024 1024" xmlns="http://www.w3.org/2000/svg">
    <path transform="translate(0, -128) rotate(180, 512 512)" glyph-name="user" unicode="&#xe957;" d="M512 845q196 -5 326 -135t135 -326q-5 -196 -135 -326t-326 -135q-196 5 -326 135t-135 326q5 196 135 326t326 135zM303 94q-9 -17 -15 -35q50 -34 107 -52t117 -18t116.5 17.5t106.5 50.5q-6 16 -13 31q-30 60 -85.5 95t-122.5 36t-123 -32t-88 -93zM787 102h3 q87 87 111 202.5t-21 229.5q-47 113 -145 178.5t-220 67.5q-123 -2 -221 -67.5t-145 -178.5q-45 -114 -21 -229.5t111 -202.5q4 13 10 24q41 74 112 115.5t155.5 40t154 -44.5t109.5 -118q6 -9 7 -17zM347 483q2 -70 48.5 -116.5t116.5 -48.5q70 2 116.5 48.5t48.5 116.5 q-2 70 -48.5 116.5t-116.5 47.5q-70 -1 -116.5 -47.5t-48.5 -116.5zM512 384q-27 0 -50 12.5t-37 36t-14 50t14 50t37 36.5t50 12q41 -1 68.5 -29t27.5 -69.5t-27.5 -69t-68.5 -29.5z"/>
</svg>