<?xml version="1.0" standalone="no"?>
<svg class="icon" viewBox="0 0 1024 1024" xmlns="http://www.w3.org/2000/svg">
    <path transform="translate(0, -128) rotate(180, 512 512)" glyph-name="volume-plus" unicode="&#xe95b;" d="M171 606q-31 -1 -49.5 -19t-19.5 -49v-273q1 -32 19.5 -50t49.5 -19h136l205 -136v682l-205 -136h-136zM444 613v-430l-116 82h-157v273h157zM649 401q-1 -31 -19.5 -49.5t-49.5 -18.5v136q31 0 49.5 -18.5t19.5 -49.5zM785 401q-2 -89 -59 -146t-146 -59v69 q58 1 96.5 39.5t40.5 96.5q-2 58 -40.5 96.5t-96.5 40.5v68q89 -2 146 -59t59 -146zM580 742q147 -3 242.5 -98.5t99.5 -242.5q-4 -147 -99.5 -242.5t-242.5 -98.5v68q116 3 193 80t80 193q-3 116 -80 193t-193 80v68z"/>
</svg>